<?xml version="1.0" encoding="utf-8"?>
<!-- Generator: Adobe Illustrator 21.1.0, SVG Export Plug-In . SVG Version: 6.00 Build 0)  -->
<svg version="1.1" id="Layer_1" xmlns="http://www.w3.org/2000/svg" xmlns:xlink="http://www.w3.org/1999/xlink" x="0px" y="0px"
	 viewBox="0 0 108 129" style="enable-background:new 0 0 108 129;" xml:space="preserve">
<style type="text/css">
	.st0{fill:#C7B000;}
	.st1{fill:none;stroke:#60357C;}
</style>
<g>
	<g>
		<path class="st0" d="M12.5,115.2c0.3,0.5,0.5,0.6,0.9,0.6s0.7-0.3,0.7-1v-6.5h1.7v6.4c0,1.6-0.8,2.5-2.4,2.5
			c-0.9,0-1.6-0.4-2.1-1.2L12.5,115.2z"/>
		<path class="st0" d="M21.1,114c0,1.4-0.4,2.1-1.2,2.1c-0.8,0-1.2-0.7-1.2-2.1s0.4-2.1,1.2-2.1S21.1,112.6,21.1,114z M17.1,114
			c0,2,1,3.3,2.7,3.3s2.8-1.3,2.8-3.3s-1-3.3-2.7-3.3C18.1,110.7,17.1,112,17.1,114z"/>
		<path class="st0" d="M23.6,117.2v-8.8h1.5v3.1c0.5-0.4,1.1-0.8,1.8-0.8c1.3,0,1.9,0.8,1.9,2.1v4.3h-1.5V113c0-0.9-0.3-1.1-0.8-1.1
			c-0.7,0-1.2,0.4-1.4,0.7v4.6L23.6,117.2z"/>
		<path class="st0" d="M30.4,117.2v-6.3h1.4v0.7c0.6-0.4,1.2-0.8,1.9-0.8c1.3,0,1.9,0.8,1.9,2.1v4.3h-1.5v-4.1
			c0-0.9-0.3-1.1-0.8-1.1c-0.7,0-1.2,0.4-1.4,0.7v4.6L30.4,117.2z"/>
		<path class="st0" d="M40.3,112.5c-0.3-0.3-0.7-0.7-1.2-0.7c-0.6,0-0.9,0.2-0.9,0.6c0,1.1,3.2,0.6,3.2,2.9c0,1.3-1,1.9-2.3,1.9
			c-1,0-1.8-0.5-2.4-1.3l1-0.8c0.4,0.5,0.8,0.9,1.5,0.9c0.5,0,0.9-0.3,0.9-0.7c0-1.1-3.2-0.7-3.2-2.9c0-1.2,1-1.8,2.1-1.8
			c0.8,0,1.7,0.3,2.2,1L40.3,112.5z"/>
		<path class="st0" d="M42.8,110.9v-2.1h1.5v2.1h1.2v1.2h-1.2v3.6c0,0.3,0.2,0.4,0.5,0.4c0.2,0,0.5-0.1,0.7-0.1v1.2
			c-0.4,0-0.8,0.1-1.2,0.1c-1.1,0-1.6-0.6-1.6-1.5V112h-0.9v-1.2L42.8,110.9z"/>
		<path class="st0" d="M50.1,114c0,1.4-0.4,2.1-1.2,2.1c-0.8,0-1.2-0.7-1.2-2.1s0.4-2.1,1.2-2.1C49.7,112,50.1,112.6,50.1,114z
			 M46.2,114c0,2,1,3.3,2.7,3.3s2.8-1.3,2.8-3.3s-1-3.3-2.7-3.3C47.2,110.7,46.2,112,46.2,114z"/>
		<path class="st0" d="M52.7,117.2v-6.3h1.4v0.7c0.6-0.4,1.2-0.8,1.9-0.8c1.3,0,1.9,0.8,1.9,2.1v4.3h-1.5v-4.1
			c0-0.9-0.3-1.1-0.8-1.1c-0.7,0-1.2,0.4-1.4,0.7v4.6L52.7,117.2z"/>
	</g>
	<g>
		<path class="st0" d="M62.6,108.4h2.9c2.3,0,3.9,1.3,3.9,4.4s-1.6,4.4-3.9,4.4h-2.9V108.4z M64.3,115.8h1.1c1.9,0,2.4-1.4,2.4-3
			s-0.4-3-2.4-3h-1.1V115.8z"/>
		<path class="st0" d="M74.4,113.3c0-0.9-0.5-1.4-1.2-1.4s-1.2,0.5-1.2,1.4H74.4z M71.9,114.3c0,1.3,0.6,1.8,1.3,1.8
			c0.7,0,1-0.3,1.4-0.8l1.1,0.7c-0.6,0.9-1.4,1.3-2.7,1.3c-1.6,0-2.7-1.3-2.7-3.3s1-3.3,2.8-3.3c1.7,0,2.6,1.4,2.6,2.9v0.6
			L71.9,114.3z"/>
		<path class="st0" d="M80.1,112.6c-0.3-0.3-0.7-0.7-1.2-0.7c-0.6,0-0.9,0.2-0.9,0.6c0,1.1,3.2,0.6,3.2,2.9c0,1.3-1,1.9-2.3,1.9
			c-1,0-1.8-0.5-2.4-1.3l1-0.8c0.4,0.5,0.8,0.9,1.5,0.9c0.5,0,0.9-0.3,0.9-0.7c0-1.1-3.2-0.7-3.2-2.9c0-1.2,1-1.8,2.1-1.8
			c0.8,0,1.7,0.3,2.2,1L80.1,112.6z"/>
		<path class="st0" d="M84.1,117.2h-1.5v-6.3h1.5V117.2z M82.6,109.7v-1.4h1.5v1.4H82.6z"/>
		<path class="st0" d="M86.5,117.8c0,0.5,0.4,0.7,1.7,0.7c1,0,1.3-0.5,1.3-0.7c0-0.3-0.4-0.7-1.9-0.7
			C86.8,117.1,86.5,117.6,86.5,117.8z M87.9,111.9c-0.6,0-1.1,0.5-1.1,1c0,0.6,0.4,1,1.1,1c0.6,0,1-0.5,1-1S88.5,111.9,87.9,111.9z
			 M91,111.8c-0.4,0-0.7,0-1,0.1c0.2,0.3,0.3,0.6,0.3,1.1c0,1.2-0.8,2-2.4,2c-0.7,0-1.2,0-1.2,0.4c0,1,4.2-0.4,4.2,2.2
			c0,0.9-0.9,1.9-2.9,1.9c-1.7,0-2.8-0.5-2.8-1.5c0-0.8,0.6-1.2,1.1-1.2l0,0c-0.3-0.2-0.9-0.3-0.9-1c0-0.6,0.7-1.1,1-1.2
			c-0.5-0.4-0.9-0.9-0.9-1.7c0-1.1,0.9-2.2,2.5-2.2c0.5,0,1.2,0.2,1.6,0.6c0.3-0.4,0.8-0.6,1.5-0.6L91,111.8z"/>
		<path class="st0" d="M91.9,117.2v-6.3h1.4v0.7c0.6-0.4,1.2-0.8,2-0.8c1.3,0,1.9,0.8,1.9,2.1v4.3h-1.5v-4.1c0-0.9-0.3-1.1-0.8-1.1
			c-0.7,0-1.2,0.4-1.4,0.7v4.6L91.9,117.2z"/>
	</g>
</g>
<g>
	<g>
		<path class="st1" d="M53.4,26c0-7.3-8.7-3.3-8.7-6.6c0-0.9,0.4-1.2,1.6-1.2c4,0,10,0.2,17.5,0.2c7.6,0,13.5-0.2,17.5-0.2
			c1.1,0,1.6,0.3,1.6,1.2c0,3.3-8.7-0.6-8.7,6.6v36.5c0,17.4-8.2,27.8-28.1,27.8c-9.1,0-18.6-5-18.6-14.1c0-6.4,3.8-10.1,9.7-10.1
			c3.4,0,8.6,2.3,8.6,9.2c0,3.8-3.3,5.9-3.3,8.4c0,2.6,1.8,4,5.1,4c3,0,5.9-2.5,5.9-6.6V26L53.4,26L53.4,26z"/>
	</g>
	<g>
		<path class="st1" d="M56.3,32c0-7.3-8.7-3.3-8.7-6.6c0-0.9,0.4-1.2,1.6-1.2c4,0,10,0.2,17.5,0.2c7.6,0,13.5-0.2,17.5-0.2
			c1.1,0,1.6,0.3,1.6,1.2c0,3.3-8.7-0.6-8.7,6.6v36.5c0,17.4-8.2,27.8-28.1,27.8c-9.1,0-18.6-5-18.6-14.1c0-6.4,3.8-10.1,9.7-10.1
			c3.4,0,8.6,2.3,8.6,9.2c0,3.8-3.3,5.9-3.3,8.4c0,2.6,1.8,4,5.1,4c3,0,5.9-2.5,5.9-6.6V32L56.3,32L56.3,32z"/>
	</g>
	<g>
		<path class="st1" d="M54.2,19.9c0-7.3-8.7-3.3-8.7-6.6c0-0.9,0.4-1.2,1.6-1.2c4,0,10,0.2,17.5,0.2c7.6,0,13.5-0.2,17.5-0.2
			c1.1,0,1.6,0.3,1.6,1.2c0,3.3-8.7-0.6-8.7,6.6v36.5c0,17.4-8.2,27.8-28.1,27.8c-9.1,0-18.6-5-18.6-14.1c0-6.4,3.8-10.1,9.7-10.1
			c3.4,0,8.6,2.3,8.6,9.2c0,3.8-3.3,5.9-3.3,8.4c0,2.6,1.8,4,5.1,4c3,0,5.9-2.5,5.9-6.6V19.9L54.2,19.9L54.2,19.9z"/>
	</g>
	<g>
		<path class="st1" d="M48.9,26c0-7.3-8.7-3.3-8.7-6.6c0-0.9,0.4-1.2,1.6-1.2c4,0,10,0.2,17.5,0.2c7.6,0,13.5-0.2,17.5-0.2
			c1.1,0,1.6,0.3,1.6,1.2c0,3.3-8.7-0.6-8.7,6.6v36.5c0,17.4-8.2,27.8-28.1,27.8c-9.1,0-18.6-5-18.6-14.1c0-6.4,3.8-10.1,9.7-10.1
			c3.4,0,8.6,2.3,8.6,9.2c0,3.8-3.3,5.9-3.3,8.4c0,2.6,1.8,4,5.1,4c3,0,5.9-2.5,5.9-6.6V26L48.9,26L48.9,26z"/>
	</g>
</g>
</svg>
