<?xml version="1.0" encoding="utf-8"?>
<!-- Generator: Adobe Illustrator 21.1.0, SVG Export Plug-In . SVG Version: 6.00 Build 0)  -->
<svg version="1.1" id="Layer_1" xmlns="http://www.w3.org/2000/svg" xmlns:xlink="http://www.w3.org/1999/xlink" x="0px" y="0px"
	 viewBox="0 0 453.5 255.1" style="enable-background:new 0 0 453.5 255.1;" xml:space="preserve">
<style type="text/css">
	.st0{fill:#231F20;}
</style>
<g>
	<g>
		<polygon class="st0" points="238.2,110.7 216,123.5 251.8,121.1 277.5,109.5 		"/>
	</g>
</g>
<g>
	<polygon class="st0" points="226.9,59.2 204.9,78.9 211.3,123.1 236.3,108.7 	"/>
</g>
<path class="st0" d="M270.4,64.3l-41-6l9.5,49.8l43.6-1.3L270.4,64.3z M250.1,87.2c1.2,4,4,6.8,8.1,7c2.2,0.1,4.2-0.6,4.9-2.2
	l12.2,0.5c-1.1,7.3-7.6,10.4-15.3,10.1c-11-0.5-20.7-7.4-23.1-18.8c-2.2-10,3.3-17.8,14.2-17.4c13.7,0.6,21.2,8.6,24,21.9
	L250.1,87.2z M261.2,81c-0.7-3.2-3.6-5.8-7-6c-3.9-0.2-5.7,1.8-5.5,5.5L261.2,81z"/>
<g>
	<g>
		<path class="st0" d="M145,150.4c0.4,3.8,2.5,6.4,6.4,6.4c2.1,0,4.2-0.7,5.3-2.3h11.8c-2.5,7.1-9.4,10.4-17,10.4
			c-10.5,0-18.5-6.2-18.5-17.3c0-9.6,7-17.5,17.5-17.5c13.1,0,18.8,7.3,18.8,20.2L145,150.4L145,150.4z M157,143.9
			c0-3.1-2.2-5.6-5.6-5.6c-3.8,0-5.9,2-6.5,5.6H157z"/>
		<path class="st0" d="M203.7,164.2h-12.2v-3.6h-0.1c-1.6,2.1-3.5,4.5-9.6,4.5c-9.4,0-13.9-9.3-13.9-17.6c0-7.7,3-17.2,14-17.2
			c3.8,0,7.1,1.6,9,4.5h0.1v-16h12.6L203.7,164.2L203.7,164.2z M186,139.4c-4.5,0-5.6,4.2-5.6,8.2c0,4,1,8.2,5.6,8.2
			c4.5,0,5.6-4.2,5.6-8.2C191.5,143.6,190.5,139.4,186,139.4z"/>
		<path class="st0" d="M227.1,164.2h-14.9l-10.8-33h13.3l5.1,20.2h0.1l5.2-20.2H238L227.1,164.2z"/>
		<path class="st0" d="M266.7,156.7c0,2.5,0.1,5.3,1.5,7.4h-12.9c-0.4-0.9-0.5-2.2-0.4-3.2h-0.1c-2.7,3.1-6.6,4-10.6,4
			c-6.4,0-11.6-3.1-11.6-10c0-10.4,12.2-10.1,18.6-11.2c1.7-0.4,3.4-0.8,3.4-3c0-2.2-2.1-3.1-4.1-3.1c-3.9,0-4.7,2-4.7,3.3h-11.7
			c0.2-4.7,2.5-7.4,5.8-8.9c3.2-1.5,7.4-1.9,11.2-1.9c15.8,0,15.7,6.6,15.7,13L266.7,156.7L266.7,156.7z M254.6,149.3
			c-1.5,0.7-3.2,1.2-5,1.6c-2.8,0.6-4.2,1.4-4.2,3.6c0,1.5,1.6,3.1,4,3.1c2.9,0,5.1-1.7,5.3-5.1L254.6,149.3L254.6,149.3z"/>
		<path class="st0" d="M269.8,118.7h12.6v45.4h-12.6V118.7z"/>
	</g>
</g>
</svg>
