<?xml version="1.0" encoding="utf-8"?>
<!-- Generator: Adobe Illustrator 21.1.0, SVG Export Plug-In . SVG Version: 6.00 Build 0)  -->
<svg version="1.1" id="Layer_1" xmlns="http://www.w3.org/2000/svg" xmlns:xlink="http://www.w3.org/1999/xlink" x="0px" y="0px"
	 viewBox="0 0 85 85" style="enable-background:new 0 0 85 85;" xml:space="preserve">
<style type="text/css">
	.st0{fill:#5F3586;}
	.st1{fill:none;stroke:#5F3586;stroke-width:1.5;stroke-miterlimit:10;}
</style>
<g>
	<g>
		<path class="st0" d="M43,61.4c-3.8,0-8-3.9-10.1-9.5c0,0,0-0.1-0.1-0.1h-4.2c-2.4,0-4.4-1.9-4.4-4.4v-3.2c0-1.8,1.2-3.6,3-4.1
			c0.1,0,0.2-0.1,0.3-0.2v-0.5c0-5.1,1.3-9,3.9-11.6c2.6-2.7,6.4-4,11.6-4s9,1.3,11.6,3.9c2.6,2.6,3.9,6.5,3.9,11.6v0.5
			c0,0.1,0.1,0.1,0.2,0.2c1.7,0.6,3,2.3,3,4.1v3.2c0,1.8-1.2,3.5-2.9,4.1l-3.1,0.3h-3.6l0,0c-0.1,0-0.2,0-0.3-0.1
			c-0.3-0.1-0.6-0.3-0.7-0.6c-0.1-0.3-0.2-0.6-0.1-0.9c0.7-2.1,1.1-4.2,1.1-6.5c0-1-0.1-1.8-0.2-2.6c0-0.3,0-0.6,0.2-0.9
			c0.2-0.3,0.5-0.4,0.8-0.5H53h1.9h0.7c0.2,0,0.5-0.2,0.5-0.5c0-4.5-1.1-7.8-3.3-10c-2.2-2.2-5.5-3.3-10-3.3s-7.8,1.1-10,3.3
			s-3.3,5.5-3.3,10c0,0.2,0.2,0.5,0.5,0.5h1.2c0.2,0,0.4-0.2,0.4-0.4c1.2-6,5.2-9.2,11.1-9.2c3.8,0,6.9,1.3,8.9,3.9
			c0.2,0.3,0.3,0.6,0.2,0.9c0,0.3-0.2,0.6-0.5,0.8C51.3,35.9,51,36,50.8,36c-0.4,0-0.7-0.2-1-0.5c-1.5-2-3.9-3.1-7.1-3.1
			c-4.2,0-9.2,1.9-9.2,11.2c0,9.2,5.6,15.3,9.2,15.3c0.4,0,0.9-0.1,1.2-0.2c0.1,0,0.2-0.1,0.4-0.1c0.5,0,1,0.3,1.2,0.8
			c0.1,0.3,0.1,0.6-0.1,0.9c-0.1,0.3-0.4,0.5-0.7,0.6C44.2,61.3,43.6,61.4,43,61.4z M54.9,42.1c-0.1,0-0.2,0.1-0.3,0.1
			c-0.1,0.2-0.1,0.3-0.1,0.4c0,0.4,0,0.8,0,1.2c0,1.7-0.2,3.5-0.6,5.2c0,0.1,0,0.3,0.1,0.4c0.1,0.1,0.2,0.2,0.4,0.2h3c1.2,0,2-1,2-2
			v-3.2c0-1.2-1-2-2-2h-2.5V42.1z M28.5,42.1c-1.2,0-2,1-2,2v3.2c0,1.2,1,2,2,2h3c0.1,0,0.3-0.1,0.4-0.2C32,49,32,48.9,32,48.7
			c-0.4-1.7-0.6-3.5-0.6-5.2c0-0.3,0-0.7,0-1v-0.2c0-0.1,0-0.2-0.1-0.3S31.1,42,31,42L28.5,42.1L28.5,42.1z"/>
		<path class="st0" d="M58.8,51.4c1.7-0.6,2.9-2.2,2.9-4v-3.2c0-1.8-1.2-3.5-2.9-4c-0.1,0-0.2-0.2-0.3-0.3v-0.5
			c0-5.1-1.3-8.9-3.9-11.5C52,25.3,48.1,24,43.1,24c-5.1,0-8.9,1.3-11.5,3.9s-3.9,6.5-3.9,11.5v0.5c-0.1,0.1-0.2,0.2-0.3,0.3
			c-1.7,0.6-2.9,2.2-2.9,4v3.2c0,2.4,1.9,4.3,4.3,4.3h1.7h1.2h1.2c0,0,0.1,0.1,0.1,0.2c2,5.5,6.1,9.4,10,9.4c0.7,0,1.2-0.1,1.9-0.3
			c0.6-0.2,0.9-0.8,0.7-1.3c-0.1-0.5-0.6-0.8-1.1-0.8c-0.1,0-0.2,0-0.3,0.1c-0.5,0.1-0.9,0.2-1.2,0.2c-3.7,0-9.3-6.1-9.3-15.4
			c0-9.3,5.1-11.2,9.3-11.2c3.2,0,5.6,1.1,7.2,3.1c0.2,0.3,0.5,0.4,0.9,0.4c0.2,0,0.5-0.1,0.7-0.2c0.2-0.2,0.4-0.4,0.4-0.7
			s0-0.6-0.2-0.8c-2-2.6-5-3.9-8.8-3.9c-6,0-9.9,3.3-11,9.2c-0.1,0.3-0.3,0.4-0.5,0.4h-1.2c-0.3,0-0.5-0.2-0.5-0.5
			c0-4.5,1.1-7.9,3.3-10.1s5.5-3.3,10.1-3.3c4.5,0,7.9,1.1,10.1,3.3s3.3,5.5,3.3,10.1c0,0.3-0.2,0.5-0.5,0.5h-0.7h-1.9l0,0l0,0l0,0
			l0,0h-0.1c-0.6,0.1-1.1,0.6-1,1.2c0.1,0.9,0.2,1.7,0.2,2.6c0,2.2-0.4,4.4-1.1,6.5c-0.1,0.3-0.1,0.6,0.1,0.9
			c0.1,0.3,0.4,0.5,0.7,0.6c0.1,0,0.2,0,0.3,0.1l0,0l0,0l0,0l0,0H53h0.4h2.8 M31,42.1c0.1,0,0.3,0.1,0.4,0.2s0.2,0.3,0.2,0.4v0.1
			c0,0.4,0,0.7,0,1c0,1.7,0.2,3.5,0.6,5.2c0,0.2,0,0.3-0.1,0.5c-0.1,0.1-0.3,0.2-0.4,0.2h-3c-1.2,0-2.1-1-2.1-2.1v-3.2
			c0-1.2,1-2.1,2.1-2.1L31,42.1L31,42.1z M59.5,47.4c0,1.2-1,2.1-2.1,2.1h-3c-0.2,0-0.3-0.1-0.4-0.2c-0.1-0.1-0.1-0.3-0.1-0.5
			c0.4-1.7,0.6-3.5,0.6-5.2c0-0.4,0-0.8,0-1.2c0-0.1,0-0.3,0.2-0.4c0.1-0.1,0.2-0.2,0.4-0.2h2.3c1.2,0,2.1,1,2.1,2.1V47.4z"/>
	</g>
</g>
<ellipse transform="matrix(0.7071 -0.7071 0.7071 0.7071 -17.3233 41.4251)" class="st1" cx="41.3" cy="41.6" rx="33.8" ry="33.8"/>
<ellipse transform="matrix(0.7071 -0.7071 0.7071 0.7071 -20.6233 42.792)" class="st1" cx="41.3" cy="46.3" rx="33.8" ry="33.8"/>
<ellipse transform="matrix(0.7071 -0.7071 0.7071 0.7071 -16.6413 43.7787)" class="st1" cx="44.5" cy="42" rx="33.8" ry="33.8"/>
</svg>
