<?xml version="1.0" encoding="utf-8"?>
<!-- Generator: Adobe Illustrator 21.1.0, SVG Export Plug-In . SVG Version: 6.00 Build 0)  -->
<svg version="1.1" id="Layer_1" xmlns="http://www.w3.org/2000/svg" xmlns:xlink="http://www.w3.org/1999/xlink" x="0px" y="0px"
	 viewBox="0 0 85 85" style="enable-background:new 0 0 85 85;" xml:space="preserve">
<style type="text/css">
	.st0{fill:#5F3586;}
	.st1{fill:none;stroke:#5F3586;stroke-width:1.5;stroke-miterlimit:10;}
</style>
<path class="st0" d="M53.8,42.3h3.5V45h-4.3l-0.2,0.9c-0.3,1.3-0.9,2.7-1.6,3.8l-0.5,0.8l3.2,3.2l-1.9,1.9l-3.2-3.2L48,52.9
	c-1.2,0.7-2.4,1.2-3.7,1.4l-0.9,0.2v4.7h-2.8v-3.9h-2.2v6h7.2v-5.1c1-0.3,1.9-0.6,2.8-1.1l3.6,3.6l5.1-5.1l-3.5-3.5
	c0.6-1,1-1.9,1.2-3h4.8V40h-5.7L53.8,42.3L53.8,42.3z"/>
<path class="st0" d="M30.7,45h-4.2v-2.8h5.2l0.2-0.9c0.3-1.2,0.7-2.2,1.3-3.4l0.5-0.8L30,33.6l1.9-1.9l3.6,3.6l0.8-0.5
	c1-0.7,2.1-1.2,3.5-1.5l0.9-0.2v-4.8h2.8V32h2.2v-6h-7.2v5.4c-0.9,0.3-1.7,0.7-2.5,1.1L32,28.6l-5.1,5.1l3.9,3.9
	c-0.4,0.8-0.8,1.5-1,2.4h-5.6v7.2h6.4L30.7,45L30.7,45z"/>
<path class="st0" d="M41.8,52c4,0,7.3-3.3,7.3-7.3c0-0.6-0.1-1.3-0.3-1.8l5.4-5.4l3.7-9.2l-8.9,3.5l-5.8,5.8c-0.5-0.1-1-0.2-1.4-0.2
	c-4,0-7.3,3.3-7.3,7.3c0,0.5,0.1,1,0.2,1.4l-8.2,8.2c-1.5,1.5-1.6,4.1-0.1,5.6c0.7,0.7,1.7,1.1,2.7,1.1c1,0,2.1-0.4,2.9-1.2l8-8
	C40.6,51.9,41.2,52,41.8,52 M35.9,52.9l-0.7,0.7l-0.7,0.7l-1.3,1.3l-2.3-2.7l1.1-1.1l0.7-0.7l0.7-0.7l2.1-2.1l1.5-1.5l6.8-6.8
	l1.5-1.5l3-3l2.5,2.5l-2.9,2.9l-1.5,1.5l-7,7l-1.5,1.5L35.9,52.9z M27.8,58.5c-0.7-0.7-0.6-1.9,0.1-2.6l1.4-1.4l2.3,2.7l-1.3,1.3
	C29.7,59.1,28.5,59.2,27.8,58.5 M50,33.6l4.2-1.6l-1.6,4.2l-0.3,0.3l-2.5-2.5L50,33.6z M41.8,49.9l5.1-5.1
	C47,47.5,44.7,49.9,41.8,49.9 M41.3,39.6l-4.6,4.6C36.9,41.7,38.8,39.8,41.3,39.6"/>
<circle class="st1" cx="43.7" cy="43.9" r="33.8"/>
<circle class="st1" cx="40.4" cy="40.6" r="33.8"/>
<circle class="st1" cx="41.2" cy="45.9" r="33.8"/>
</svg>
