<?xml version="1.0" encoding="utf-8"?>
<!-- Generator: Adobe Illustrator 21.1.0, SVG Export Plug-In . SVG Version: 6.00 Build 0)  -->
<svg version="1.1" id="Layer_1" xmlns="http://www.w3.org/2000/svg" xmlns:xlink="http://www.w3.org/1999/xlink" x="0px" y="0px"
	 viewBox="0 0 85 85" style="enable-background:new 0 0 85 85;" xml:space="preserve">
<style type="text/css">
	.st0{fill:#5F3586;}
	.st1{fill:none;stroke:#5F3586;stroke-width:1.5;stroke-miterlimit:10;}
</style>
<g>
	<g>
		<g>
			<g>
				<path class="st0" d="M54.3,59.8c-2.8,0-5-2.2-5-5c0-0.2-0.1-0.3-0.3-0.3H36.2c-0.2,0-0.3,0.1-0.3,0.3c0,2.8-2.2,5-5,5
					s-5-2.2-5-5c0-0.2-0.1-0.3-0.3-0.3H23c-0.6,0-1.1-0.5-1.1-1.1s0.5-1.1,1.1-1.1h3.4c0.1,0,0.2-0.1,0.2-0.1c1-1.5,2.5-2.5,4.2-2.5
					c1.7,0,3.5,1,4.2,2.5c0,0.1,0.1,0.1,0.2,0.1H45c0.2,0,0.3-0.1,0.3-0.3V30.1c0-0.2-0.1-0.3-0.3-0.3H25.6c-0.9,0-1.4,0.8-1.4,1.5
					c0,0.8,0.7,1.5,1.4,1.5h7.7c0.6,0,1.1,0.5,1.1,1.1S33.9,35,33.3,35h-5.1c-0.9,0-1.4,0.8-1.4,1.5s0.7,1.5,1.4,1.5h8.9
					c0.6,0,1.1,0.5,1.1,1.1s-0.5,1.1-1.1,1.1H32c-0.9,0-1.4,0.8-1.4,1.5s0.7,1.5,1.4,1.5h6.5c0.6,0,1.1,0.5,1.1,1.1
					s-0.5,1.1-1.1,1.1H32c-1.9,0-3.6-1.6-3.6-3.6c0-0.4,0.1-0.9,0.2-1.2c0-0.1,0-0.2,0-0.2c-0.1-0.1-0.1-0.1-0.2-0.1h-0.3
					c-1.9,0-3.6-1.6-3.6-3.6c0-0.5,0.1-1,0.3-1.3c0-0.1,0-0.2,0-0.2c0-0.1-0.1-0.1-0.2-0.1c-1.5-0.5-2.7-1.8-2.7-3.5
					c0-2,1.5-3.6,3.6-3.6h20.8c0.6,0,1.1,0.5,1.1,1.1v23.5c0,0.2,0.1,0.3,0.3,0.3h2c0.1,0,0.2-0.1,0.2-0.1l0.1-0.1
					c0.1-0.2,0.2-0.3,0.3-0.4c0.1-0.1,0.1-0.2,0.2-0.3c0.2-0.2,0.4-0.4,0.5-0.5s0.2-0.2,0.4-0.3c0.1-0.1,0.2-0.2,0.3-0.2
					c0.2-0.1,0.3-0.2,0.5-0.3h0.1c0.1,0,0.2-0.1,0.2-0.1c0.2-0.1,0.5-0.2,0.8-0.2c0.1,0,0.2,0,0.3-0.1c0.4-0.1,0.7-0.1,0.9-0.1
					c0.3,0,0.6,0,0.9,0.1c0.1,0,0.2,0,0.3,0.1c0.3,0.1,0.5,0.1,0.8,0.2c0.1,0,0.2,0.1,0.2,0.1h0.1c0.2,0.1,0.4,0.2,0.5,0.3
					s0.2,0.1,0.3,0.2c0.1,0.1,0.3,0.2,0.4,0.3c0.2,0.1,0.3,0.3,0.5,0.5c0.1,0.1,0.2,0.2,0.3,0.3s0.2,0.3,0.3,0.4v0.1
					c0,0.1,0.1,0.1,0.2,0.1h2c0.2,0,0.3-0.1,0.3-0.3V46c0-0.2-0.1-0.3-0.3-0.3h-6.4c-0.6,0-1.1-0.5-1.1-1.1v-6.4
					c0-0.2-0.1-0.3-0.3-0.3h-2.6c-0.6,0-1.1-0.5-1.1-1.1s0.5-1.1,1.1-1.1h7.9c0.4,0,0.8,0.2,1,0.6l3.8,7.8v0.1
					c0.1,0.2,0.1,0.3,0.1,0.5v9.1c0,0.6-0.5,1.1-1.1,1.1H60c-0.2,0-0.3,0.1-0.3,0.3C59.3,57.6,57.1,59.8,54.3,59.8z M54.3,52
					c-0.3,0-0.6,0-0.9,0.1h-0.1c-0.9,0.3-1.4,1-1.7,1.7c-0.1,0.4-0.2,0.7-0.2,1.1c0,1.5,1.2,2.9,2.9,2.9c1.6,0,2.9-1.2,2.9-2.9
					c0-0.3-0.1-0.7-0.2-1c-0.3-0.9-1-1.4-1.7-1.7h-0.1C54.9,52.1,54.6,52,54.3,52z M30.9,52c-1.5,0-2.9,1.2-2.9,2.9
					c0,1.5,1.2,2.9,2.9,2.9c1.5,0,2.9-1.2,2.9-2.9S32.4,52,30.9,52z M55.6,37.8c-0.2,0-0.3,0.1-0.3,0.3v5.2c0,0.2,0.1,0.3,0.3,0.3
					H60c0.1,0,0.2,0,0.2-0.1c0.1-0.1,0.1-0.2,0-0.3L57.6,38c0-0.1-0.1-0.2-0.2-0.2H55.6z"/>
				<path class="st0" d="M54.3,59.6c-2.7,0-4.8-2.1-4.8-4.8c0-0.3-0.2-0.5-0.5-0.5H36.2c-0.3,0-0.5,0.2-0.5,0.5
					c0,2.7-2.1,4.8-4.8,4.8s-4.8-2.1-4.8-4.8c0-0.3-0.2-0.5-0.5-0.5H23c-0.5,0-0.9-0.4-0.9-0.9s0.4-0.9,0.9-0.9h3.4
					c0.2,0,0.3-0.1,0.4-0.2c0.9-1.4,2.4-2.4,4.1-2.4c1.6,0,3.3,1,4.1,2.4c0.1,0.1,0.2,0.2,0.4,0.2h9.8c0.3,0,0.5-0.2,0.5-0.5V30.1
					c0-0.3-0.2-0.5-0.5-0.5H25.6c-1,0-1.6,0.8-1.6,1.7c0,0.9,0.8,1.7,1.6,1.7h7.7c0.5,0,0.9,0.4,0.9,0.9s-0.4,0.9-0.9,0.9h-5.1
					c-1,0-1.6,0.8-1.6,1.7s0.8,1.7,1.6,1.7h8.9c0.5,0,0.9,0.4,0.9,0.9S37.6,40,37.1,40H32c-1,0-1.6,0.8-1.6,1.7s0.8,1.7,1.6,1.7h6.5
					c0.5,0,0.9,0.4,0.9,0.9s-0.4,0.9-0.9,0.9H32c-1.8,0-3.5-1.5-3.5-3.5c0-0.4,0.1-0.8,0.2-1.2c0-0.1,0-0.3-0.1-0.4
					c-0.1-0.1-0.2-0.2-0.4-0.2H28c-1.8,0-3.5-1.5-3.5-3.5c0-0.5,0.1-0.9,0.3-1.2c0-0.1,0-0.3,0-0.4c-0.1-0.1-0.2-0.2-0.3-0.2
					c-1.4-0.4-2.6-1.7-2.6-3.4c0-1.9,1.5-3.5,3.5-3.5h20.8c0.5,0,0.9,0.4,0.9,0.9v23.6c0,0.3,0.2,0.5,0.5,0.5h2
					c0.2,0,0.3-0.1,0.4-0.2c0,0,0-0.1,0.1-0.1c0.1-0.1,0.2-0.3,0.3-0.4c0.1-0.1,0.2-0.2,0.2-0.3l0,0c0.2-0.2,0.3-0.3,0.5-0.5
					c0.1-0.1,0.2-0.2,0.4-0.3c0.1-0.1,0.2-0.1,0.3-0.2c0.2-0.1,0.3-0.2,0.5-0.3h0.1c0.1,0,0.2-0.1,0.2-0.1c0.2-0.1,0.5-0.2,0.7-0.2
					c0.1,0,0.2,0,0.3-0.1c0.3-0.1,0.6-0.1,0.9-0.1s0.6,0,0.9,0.1c0.1,0,0.2,0,0.3,0.1c0.3,0.1,0.5,0.1,0.7,0.2
					c0.1,0,0.2,0.1,0.2,0.1h0.1c0.2,0.1,0.4,0.2,0.5,0.3s0.2,0.1,0.3,0.2c0.1,0.1,0.3,0.2,0.4,0.3c0.2,0.1,0.3,0.3,0.5,0.5l0,0
					c0.1,0.1,0.2,0.2,0.2,0.3c0.1,0.1,0.2,0.3,0.3,0.4c0,0,0,0,0,0.1c0.1,0.1,0.2,0.2,0.4,0.2h2c0.3,0,0.5-0.2,0.5-0.5v-6.4
					c0-0.3-0.2-0.5-0.5-0.5h-6.4c-0.5,0-0.9-0.4-0.9-0.9V38c0-0.3-0.2-0.5-0.5-0.5h-2.6c-0.5,0-0.9-0.4-0.9-0.9s0.4-0.9,0.9-0.9h7.9
					c0.4,0,0.7,0.2,0.8,0.5l3.8,7.8c0,0,0,0,0,0.1c0.1,0.1,0.1,0.3,0.1,0.4v9.1c0,0.5-0.4,0.9-0.9,0.9H60c-0.3,0-0.5,0.2-0.5,0.5
					C59.1,57.5,57,59.6,54.3,59.6z M51.4,53.9L51.4,53.9c-0.2,0.4-0.2,0.8-0.2,1.1c0,1.6,1.3,3.1,3.1,3.1c1.6,0,3.1-1.3,3.1-3.1
					c0-0.3-0.1-0.7-0.2-1.1c0,0,0,0,0-0.1c-0.3-0.9-1.1-1.4-1.8-1.8c-0.1,0-0.1,0-0.2,0c-0.3-0.1-0.6-0.1-0.9-0.1
					c-0.3,0-0.6,0-0.9,0.1h-0.1C52.5,52.3,51.8,53,51.4,53.9z M30.9,52c-1.6,0-3.1,1.3-3.1,3.1c0,1.6,1.3,3.1,3.1,3.1
					c1.6,0,3.1-1.3,3.1-3.1S32.6,52,30.9,52z M55.6,37.7c-0.3,0-0.5,0.2-0.5,0.5v5.2c0,0.3,0.2,0.5,0.5,0.5H60
					c0.2,0,0.3-0.1,0.4-0.2c0.1-0.1,0.1-0.3,0-0.4L57.8,38c-0.1-0.2-0.2-0.3-0.4-0.3H55.6L55.6,37.7z"/>
			</g>
		</g>
	</g>
	<g>
		<g>
			<circle class="st0" cx="30.9" cy="54.8" r="1.1"/>
			<circle class="st0" cx="30.9" cy="54.8" r="0.9"/>
		</g>
	</g>
	<g>
		<g>
			<circle class="st0" cx="54.3" cy="54.8" r="1.1"/>
			<circle class="st0" cx="54.3" cy="54.8" r="0.9"/>
		</g>
	</g>
</g>
<circle class="st1" cx="42.7" cy="41.6" r="33.8"/>
<circle class="st1" cx="39.4" cy="44.9" r="33.8"/>
<circle class="st1" cx="44.7" cy="44.1" r="33.8"/>
</svg>
