<?xml version="1.0" encoding="utf-8"?>
<!-- Generator: Adobe Illustrator 21.1.0, SVG Export Plug-In . SVG Version: 6.00 Build 0)  -->
<svg version="1.1" id="Layer_1" xmlns="http://www.w3.org/2000/svg" xmlns:xlink="http://www.w3.org/1999/xlink" x="0px" y="0px"
	 viewBox="0 0 453.5 255.1" style="enable-background:new 0 0 453.5 255.1;" xml:space="preserve">
<style type="text/css">
	.st0{fill:#231F20;}
	.st1{fill:#FFFFFF;}
</style>
<g>
	<g>
		<g>
			<path class="st0" d="M254,83.7c1.4,4.5,4.7,7.9,9.4,8.1c2.5,0.1,4.9-0.7,5.7-2.5l14.2,0.6c-1.2,8.4-8.7,12.1-17.7,11.6
				c-12.7-0.6-23.9-8.5-26.8-21.8c-2.5-11.6,3.9-20.6,16.5-20.1c15.8,0.7,24.5,9.8,27.8,25.3L254,83.7z M266.9,76.5
				c-0.8-3.7-4.2-6.8-8.1-7c-4.5-0.2-6.6,2.1-6.4,6.3L266.9,76.5z"/>
		</g>
		<g>
			<g>
				<polygon class="st0" points="277.4,59 231.8,52.3 242.4,107.6 290.8,106.1 				"/>
			</g>
		</g>
		<g>
			<g>
				<polygon class="st0" points="241.6,110.6 216.9,124.8 256.7,122.2 285.3,109.3 				"/>
			</g>
		</g>
		<g>
			<polygon class="st0" points="229,53.4 204.6,75.3 211.7,124.4 239.5,108.4 			"/>
		</g>
		<g>
			<path class="st1" d="M254.8,84.5c1.3,4.4,4.5,7.6,9,7.8c2.4,0.1,4.7-0.7,5.5-2.4l13.6,0.6c-1.2,8.1-8.4,11.6-17,11.2
				c-12.2-0.6-23-8.2-25.7-20.9c-2.4-11.1,3.7-19.8,15.8-19.3c15.2,0.7,23.5,9.5,26.7,24.3L254.8,84.5z M267.2,77.6
				c-0.8-3.5-4-6.5-7.8-6.7c-4.3-0.2-6.3,2-6.1,6.1L267.2,77.6z"/>
		</g>
	</g>
	<g>
		<g>
			<path class="st0" d="M138,154.7c0.4,4.2,2.8,7.1,7.1,7.1c2.3,0,4.7-0.8,5.9-2.6h13.1c-2.8,7.9-10.5,11.6-18.9,11.6
				c-11.7,0-20.6-6.9-20.6-19.2c0-10.7,7.8-19.4,19.4-19.4c14.6,0,20.9,8.1,20.9,22.4H138z M151.4,147.5c0-3.4-2.5-6.2-6.2-6.2
				c-4.2,0-6.6,2.2-7.2,6.2H151.4z"/>
			<path class="st0" d="M203.3,170h-13.5v-4h-0.1c-1.8,2.3-3.9,5-10.7,5c-10.4,0-15.4-10.3-15.4-19.5c0-8.6,3.3-19.1,15.6-19.1
				c4.2,0,7.9,1.8,10,5h0.1v-17.8h14V170z M183.6,142.5c-5,0-6.2,4.7-6.2,9.1c0,4.4,1.1,9.1,6.2,9.1c5,0,6.2-4.7,6.2-9.1
				C189.7,147.2,188.6,142.5,183.6,142.5z"/>
			<path class="st0" d="M229.3,170h-16.6l-12-36.7h14.8l5.7,22.4h0.1l5.8-22.4h14.3L229.3,170z"/>
			<path class="st0" d="M273.3,161.7c0,2.8,0.1,5.9,1.7,8.2h-14.3c-0.4-1-0.6-2.5-0.5-3.5h-0.1c-3,3.4-7.3,4.4-11.8,4.4
				c-7.1,0-12.9-3.4-12.9-11.1c0-11.6,13.6-11.2,20.7-12.5c1.9-0.4,3.8-0.9,3.8-3.3c0-2.5-2.3-3.4-4.6-3.4c-4.3,0-5.2,2.2-5.2,3.7
				h-13c0.2-5.2,2.8-8.2,6.4-9.9c3.5-1.7,8.2-2.1,12.5-2.1c17.5,0,17.4,7.3,17.4,14.4V161.7z M259.8,153.5c-1.7,0.8-3.6,1.3-5.5,1.8
				c-3.1,0.7-4.7,1.5-4.7,4c0,1.7,1.8,3.4,4.4,3.4c3.2,0,5.7-1.9,5.9-5.7V153.5z"/>
			<path class="st0" d="M276.7,119.5h14V170h-14V119.5z"/>
		</g>
	</g>
</g>
</svg>
