<?xml version="1.0" encoding="utf-8"?>
<!-- Generator: Adobe Illustrator 21.1.0, SVG Export Plug-In . SVG Version: 6.00 Build 0)  -->
<svg version="1.1" id="Layer_1" xmlns="http://www.w3.org/2000/svg" xmlns:xlink="http://www.w3.org/1999/xlink" x="0px" y="0px"
	 viewBox="0 0 453.5 255.1" style="enable-background:new 0 0 453.5 255.1;" xml:space="preserve">
<style type="text/css">
	.st0{stroke:#000000;stroke-width:0.5415;}
</style>
<g>
	<path d="M108.8,90.9l-15.5,16.8l16.8,17.7v0.4h-8.1l-14.8-15.6v15.5h-6.5v-35h6.5v14.7l13.4-14.7h8.1L108.8,90.9L108.8,90.9z"/>
	<path d="M128.8,125.7v-12.8c0-3.8-2-6.5-6-6.5c-3.8,0-6.3,3-6.3,6.8v12.6h-6v-24.7h5.4l0.4,3.4c2.6-2.6,5-3.6,8.2-3.6
		c5.8,0,10.4,4.4,10.4,12.1v13h-6.2L128.8,125.7L128.8,125.7z"/>
	<path d="M146.2,94.2c0,4.7-7.2,4.7-7.2,0C139.2,89.4,146.2,89.4,146.2,94.2z M139.8,101v24.7h6.2V101H139.8z"/>
	<path d="M170.4,98.4l4.6,3.4l-2.8,3.4c2,2.2,2.6,4.6,2.6,7.2c0,3-1,7.4-5.2,9.2c4.2,2,5,5,5,8.2c0,6.8-5.2,11-12.3,11
		c-7.2,0-12.4-4.4-12.4-11h6c0,3.2,2.9,5.2,6.5,5.2c3.4,0,6.3-2,6.3-5.2c0-3.4-3.2-4.8-6.3-4.8c-7.8,0-12.4-4.7-12.4-12.4
		s5.6-12.4,12.4-12.4c2,0,4,0.2,5.6,1.4L170.4,98.4z M155.7,112.7c0,4.4,2.9,6.8,6.5,6.8c3.4,0,6.3-2.6,6.3-6.8
		c0-4.4-2.9-6.8-6.3-6.8C158.7,105.8,155.7,108.4,155.7,112.7z"/>
	<path d="M184.6,90.7v13.7c2.2-2.8,4.8-3.6,7.8-3.6c7,0,10.1,4.7,10.1,11.9v13h-6.2v-13c0-4.6-2.4-6.4-5.6-6.4c-3.6,0-6.2,3-6.2,6.6
		v12.6h-6V90.7H184.6L184.6,90.7z"/>
	<path d="M213.7,94.2v7h6.8v5.2h-6.8v10.6c0,2.4,1.2,3.4,3.2,3.4c0.9,0,2-0.4,2.9-0.8l1.6,5.2c-1.8,0.8-3.2,1-5,1
		c-5.4,0.2-8.8-2.8-8.8-9v-10.5h-4.6v-5.2h4.6v-6.4L213.7,94.2z"/>
	<path d="M263.2,100.8c0,2.7-1.2,5.2-4.6,6.6c4.2,1.2,5.6,5.6,5.6,7.8c0,7.8-5.8,10.3-13,10.3c-5.6,0-11,0-16.6,0v-35
		c5.4,0,11,0,16.6,0C258,90.7,263.2,93.8,263.2,100.8z M241,104.8h10.1c4.2,0,5.4-1.8,5.4-3.8c0-1.6-1.2-4.4-5.4-4.4H241V104.8
		L241,104.8z M241,119.6h10.1c2.7,0,6.5-0.9,6.5-4.2c0-3-3.8-4.8-6.5-4.8H241V119.6z"/>
	<path d="M287.2,101h5.8v24.5h-5.8l-0.4-3.6c-1.4,2.8-5.2,4.4-8,4.4c-7.2,0-12.6-4.6-12.6-13s5.6-13,12.8-12.8c3.2,0,6.5,1.6,7.8,4
		L287.2,101z M272.5,113.3c0,4.7,3.2,7.4,7.2,7.4c9.6,0,9.6-15,0-15C275.8,105.8,272.5,108.6,272.5,113.3z"/>
	<path d="M304.7,94.2c0,4.7-7.2,4.7-7.2,0C297.5,89.4,304.7,89.4,304.7,94.2z M297.9,101v24.7h6.2V101H297.9z"/>
	<path d="M315,90.7v34.9h-6V90.7H315z"/>
	<path d="M325.4,115.4c0.4,3,3,5.2,7.4,5.2c2.2,0,5.2-0.9,6.5-2.4l4,3.8c-2.6,2.7-6.8,4-10.6,4c-8.5,0-13.5-5.2-13.5-13.2
		c0-7.4,5-12.8,13-12.8c8.3,0,13.4,5,12.4,15.2h-19.1L325.4,115.4L325.4,115.4z M338.7,110.6c-0.4-3.2-2.9-4.8-6.3-4.8
		c-3.2,0-6,1.6-6.8,4.8H338.7z"/>
	<path d="M372.3,101l-14.9,34.9h-6.6l4.6-10.6l-9.8-24.2h7l3.8,10.6l2.4,6.8l2.6-6.8l4.6-10.8h6.7v0.2H372.3z"/>
</g>
<g>
	<path class="st0" d="M197.5,150.3c-5,8.2-11.2,12.3-17,12.3c-3.4,0-5.4-1.6-5.4-3.8c0-1.4,0.9-2.6,2-2.6s1.8,0.9,1.8,1.8
		c0,0.8-0.6,1.4-0.6,2c0,0.9,1,1.6,2.9,1.6c5.2,0,9-4.8,14.1-13.9c3-5.6,6.2-10.8,12.1-15c-1.6-0.8-3.8-1.2-6.7-1.2
		c-2,0-4,0.2-6,0.6c1.2,1.4,1.8,3,1.8,5.2c0,3.4-1.4,7-4.2,9.8c-2.6,2.6-6.2,4.2-8.8,4.2c-3.2,0-5.2-2-5.2-5c0-2.8,2-6.6,5.8-9.9
		c2.6-2.2,5.4-3.6,8.6-4.4c-1.4-0.9-2.9-1.4-4.7-1.4c-4,0-8,2.2-10.8,6.2c-1.8,2.6-1.8,4-2.4,4c-0.2,0-0.2,0-0.2-0.4
		c0-0.6,0.8-2.6,2.4-4.7c3-3.8,7-5.8,11-5.8c2.2,0,4,0.6,5.6,1.8c2.2-0.4,4.6-0.8,6.6-0.8c2.8,0,5,0.4,7.6,1.2
		c1.2-0.8,1.8-1.2,2.4-1.2c0.2,0,0.2,0,0.2,0.2c0,0.4-0.8,0.6-2,1.4c3.2,2,4.8,4.6,4.8,7.6c0,4.4-4.2,8.3-8.6,8.3
		c-2.8,0-4.4-1-4.4-1.6c0-0.2,0-0.2,0.2-0.2c0.4,0,1,0.8,2.8,0.8c3.8,0,6.8-4.2,6.8-8.8c0-2.2-1-4.2-2.8-5.2
		C204.5,136.3,202.1,142.9,197.5,150.3z M184.8,136.9c-3.6,3-5.4,6.5-5.4,9.2c0,2.6,1.4,4.2,4.2,4.2c2.2,0,4.8-1.4,7.4-4.4
		c2.7-3,4.2-6.6,4.2-9.8c0-1.6-0.4-2.8-1.4-3.6C191.3,133.1,187.9,134.3,184.8,136.9z"/>
	<path class="st0" d="M208.3,153.9c0.9-1.2,1.4-2,1.4-2.8c0-0.4-0.2-0.6-0.6-0.6c-1,0-2.7,1.4-5.2,4.2c-1.2,1.2-1.6,2.2-2,2.2
		c-0.2,0-0.2,0-0.2-0.2c0-0.2,0.4-0.8,1-1.4l1.4-1.6c2.2-2.4,3.8-3.8,5.2-3.8c1,0,1.8,0.9,1.8,1.8c0,1.8-0.9,3.4-2.2,5.4
		c1.2-1,2.4-2.4,3.8-3.6c0.9-2.6,1.8-3.8,3.6-3.8c0.6,0,1,0.4,1,0.8c0,0.9-1.2,1.6-3.2,3c-1,0.8-1.8,1.8-1.8,3.2
		c0,0.8,0.4,1.2,1,1.2c1.8,0,2.8-2.2,3.4-2.2c0.2,0,0.2,0,0.2,0.2c0,0.6-2,2.6-3.6,2.6c-1.2,0-1.8-0.6-1.8-1.8
		c0-0.6,0.2-1.2,0.6-2.2c-1.8,1.6-4,4-6.5,7.2l-3,0.4L208.3,153.9z"/>
	<path class="st0" d="M227.1,158.4c1,0,2.4-0.6,3.6-2l0.6-0.8c0,0,0.2-0.2,0.4-0.2c0.2,0,0.2,0,0.2,0.2v0.2l-0.6,0.6
		c-1.2,1.4-2.8,2.4-4.6,2.4c-0.2,0-0.6,0-1,0c-2.2,2.4-4.2,3.6-5.8,3.6c-1.8,0-2.8-1.6-2.8-4.6c0-0.6,0.2-1.2,0.4-2
		c-0.4,0.6-0.8,0.9-0.9,0.9s-0.2,0-0.2-0.2s0.6-0.9,1.8-2.2c2.9-3,5.6-4.6,7.8-4.6c1.8,0,3,1.2,3,3.2c0,1.6-0.9,3.4-2.4,5.4
		C226.6,158.4,226.8,158.4,227.1,158.4z M220.2,161.8c0.9,0,2.6-0.9,4.2-2.8c2-2.2,3-4.7,3-6.5c0-1.4-0.8-2.2-1.6-2.2
		c-1.2,0-2.8,1.2-4.6,3.6c-1.8,2.6-2.6,4.7-2.6,6.2C218.9,161.3,219.4,161.8,220.2,161.8z"/>
	<path class="st0" d="M222.7,174l12.8-21.7l-3.6,3.8c-0.6,0.6-0.9,0.9-1,0.9c-0.2,0-0.2,0-0.2-0.2c0-0.8,4.2-3.6,8.8-11.2l2.6-4
		l2.7-0.2l-9.4,15.4c4-4.4,6.5-6.8,8.2-6.8c1,0,1.6,0.9,1.6,2.2c0,1.8-1.2,3.2-2.8,5.4c-1.2,1.8-2,2.8-2,3.8c0,0.6,0.2,0.8,0.8,0.8
		c0.8,0,2.4-1.2,4.7-3.8c1.2-1.2,1.8-2,2-2s0.2,0,0.2,0.2c0,0.4-0.8,1-2.2,2.6c-2.4,2.6-4,3.6-4.8,3.6c-1.2,0-2.2-1.2-2.2-3
		s1-3.2,2.8-5.4c1.2-1.4,2-2.2,2-2.8c0-0.4-0.2-0.6-0.6-0.6c-0.9,0-6.5,4.2-11.9,13.2l-5.8,9.9L222.7,174z"/>
	<path class="st0" d="M247.5,156.8c-0.2,0-0.2,0-0.2-0.2s0.6-0.9,1.8-2.2c2.8-3,5.6-4.6,8.1-4.6c1.4,0,2.4,0.9,2.4,2
		c0,2.4-3,4.8-8.8,6.2c-0.2,0.8-0.2,1.4-0.2,1.8c0,1.2,0.8,2,1.8,2c1.6,0,3.4-1.2,5.4-3.2c1.6-1.6,2.2-2.6,2.6-2.6
		c0.2,0,0.2,0,0.2,0.2c0,0.4-0.8,1-2.2,2.8c-2.4,2.4-4.2,3.6-6.2,3.6c-2.2,0-3.8-2-3.8-4.7c0-0.6,0-1.2,0.2-1.8
		C248.1,156.6,248,156.8,247.5,156.8z M258.1,151.4c0-0.6-0.4-0.9-0.8-0.9c-1.4,0-4.7,2.4-6.4,7
		C255.5,156.4,258.1,153.2,258.1,151.4z"/>
	<path class="st0" d="M266.5,153.9c0.9-1.2,1.4-2,1.4-2.8c0-0.4-0.2-0.6-0.6-0.6c-1,0-2.7,1.4-5.2,4.2c-1.2,1.2-1.6,2.2-2,2.2
		c-0.2,0-0.2,0-0.2-0.2c0-0.2,0.4-0.8,1-1.4l1.4-1.6c2.2-2.4,3.8-3.8,5.2-3.8c1,0,1.8,0.9,1.8,1.8c0,1.8-0.9,3.4-2.2,5.4
		c1.2-1,2.4-2.4,3.8-3.6c0.9-2.6,1.8-3.8,3.6-3.8c0.6,0,1,0.4,1,0.8c0,0.9-1.2,1.6-3.2,3c-1,0.8-1.8,1.8-1.8,3.2
		c0,0.8,0.4,1.2,1,1.2c1.8,0,2.9-2.2,3.4-2.2c0.2,0,0.2,0,0.2,0.2c0,0.6-2,2.6-3.6,2.6c-1.2,0-1.8-0.6-1.8-1.8
		c0-0.6,0.2-1.2,0.6-2.2c-1.8,1.6-4,4-6.5,7.2l-3,0.4L266.5,153.9z"/>
	<path class="st0" d="M274.4,156.8C274.4,156.8,274.3,156.8,274.4,156.8c-0.2-1,3.8-4.2,6.2-7.6l1.8-2.8h-2.2l0.4-0.6h2.2l2.7-4.4
		l2.9-0.2l-2.9,4.6h5l-0.4,0.6h-5l-6.5,10.4c-1.4,2.2-2,3.6-2,4.2c0,0.4,0.4,0.9,0.8,0.9c1.2,0,2.8-1.4,5.2-3.8c1.2-1.2,1.8-2,2-2
		c0.2,0,0.2,0,0.2,0.2c0,0.4-0.8,1-2,2.4c-2.4,2.4-4,3.8-5.4,3.8c-1.4,0-2.4-1-2.4-2.8c0-1.8,1.4-3.8,3.6-7
		C276,155.3,275.1,156.8,274.4,156.8z"/>
	<path class="st0" d="M289.8,162.2c-0.9,0-1.8-1-1.8-2.6c0-2,1-3.4,2.4-5.2c1-1.6,1.8-2.8,1.8-3.2c0-0.4-0.2-0.6-0.8-0.6
		c-1,0-2.6,1.4-5,4.2c-1.2,1.2-1.8,2.2-2,2.2s-0.2,0-0.2-0.2c0-0.2,0.4-0.8,1-1.4l1.4-1.6c2.2-2.4,3.8-3.8,5.2-3.8
		c1,0,1.8,0.9,1.8,2.4s-0.8,2.8-1.8,4.2c-1.4,2.4-2.4,3.6-2.4,4.4c0,0.6,0.4,0.9,0.8,0.9c1.2,0,5.8-3.4,10.5-11.4l2.7-0.2
		c-2.7,4.6-5,8.6-7,12.3c4.8-3.2,6.7-6.4,7.2-6.4c0.2,0,0.2,0,0.2,0.2c0,0.4-2.8,3.8-8,7.2c-4.6,8.6-8.6,12.8-11.4,12.8
		c-1.4,0-2.2-0.8-2.2-2.2c0-3,4-6.3,11.8-10.8l3.4-6.7C293.9,160.4,291.3,162.2,289.8,162.2z M283.2,174.1c0,0.9,0.4,1.4,1.2,1.4
		c2.4,0,4.8-4,8.8-11.6C286.4,168.2,283.2,171.8,283.2,174.1z"/>
</g>
</svg>
