<?xml version="1.0" encoding="utf-8"?>
<!-- Generator: Adobe Illustrator 21.1.0, SVG Export Plug-In . SVG Version: 6.00 Build 0)  -->
<svg version="1.1" id="Layer_1" xmlns="http://www.w3.org/2000/svg" xmlns:xlink="http://www.w3.org/1999/xlink" x="0px" y="0px"
	 viewBox="0 0 113.4 85" style="enable-background:new 0 0 113.4 85;" xml:space="preserve">
<style type="text/css">
	.st0{fill:#5F3586;}
	.st1{fill:none;stroke:#5F3586;stroke-width:1.5;stroke-miterlimit:10;}
</style>
<path class="st0" d="M68,42.3h3.5V45h-4.3L67,45.9c-0.3,1.3-0.9,2.7-1.6,3.8l-0.5,0.8l3.2,3.2l-1.9,1.9L63,52.4l-0.8,0.5
	c-1.2,0.7-2.4,1.2-3.7,1.4l-0.9,0.2v4.7h-2.8v-3.9h-2.2v6h7.2v-5.1c1-0.3,1.9-0.6,2.8-1.1l3.6,3.6l5.1-5.1l-3.5-3.5
	c0.6-1,1-1.9,1.2-3h4.8V40h-5.7L68,42.3L68,42.3z"/>
<path class="st0" d="M44.9,45h-4.2v-2.8h5.2l0.2-0.9c0.3-1.2,0.7-2.2,1.3-3.4l0.5-0.8l-3.7-3.5l1.9-1.9l3.6,3.6l0.8-0.5
	c1-0.7,2.1-1.2,3.5-1.5l0.9-0.2v-4.8h2.8V32h2.2v-6h-7.2v5.4c-0.9,0.3-1.7,0.7-2.5,1.1l-4-3.9l-5.1,5.1l3.9,3.9
	c-0.4,0.8-0.8,1.5-1,2.4h-5.6v7.2h6.4L44.9,45L44.9,45z"/>
<path class="st0" d="M56,52c4,0,7.3-3.3,7.3-7.3c0-0.6-0.1-1.3-0.3-1.8l5.4-5.4l3.7-9.2l-8.9,3.5l-5.8,5.8c-0.5-0.1-1-0.2-1.4-0.2
	c-4,0-7.3,3.3-7.3,7.3c0,0.5,0.1,1,0.2,1.4l-8.2,8.2c-1.5,1.5-1.6,4.1-0.1,5.6c0.7,0.7,1.7,1.1,2.7,1.1s2.1-0.4,2.9-1.2l8-8
	C54.8,51.9,55.4,52,56,52 M50.1,52.9l-0.7,0.7l-0.7,0.7l-1.3,1.3l-2.3-2.7l1.1-1.1l0.7-0.7l0.7-0.7l2.1-2.1l1.5-1.5L58,40l1.5-1.5
	l3-3L65,38l-2.9,2.9l-1.5,1.5l-7,7l-1.5,1.5L50.1,52.9z M42,58.5c-0.7-0.7-0.6-1.9,0.1-2.6l1.4-1.4l2.3,2.7l-1.3,1.3
	C43.9,59.1,42.7,59.2,42,58.5 M64.2,33.6l4.2-1.6l-1.6,4.2l-0.3,0.3L64,34L64.2,33.6z M56,49.9l5.1-5.1C61.2,47.5,58.9,49.9,56,49.9
	 M55.5,39.6l-4.6,4.6C51.1,41.7,53,39.8,55.5,39.6"/>
<circle class="st1" cx="57.9" cy="43.9" r="33.8"/>
<circle class="st1" cx="54.6" cy="40.6" r="33.8"/>
<circle class="st1" cx="55.4" cy="45.9" r="33.8"/>
</svg>
