<?xml version="1.0" encoding="utf-8"?>
<!-- Generator: Adobe Illustrator 21.1.0, SVG Export Plug-In . SVG Version: 6.00 Build 0)  -->
<svg version="1.1" id="Layer_1" xmlns="http://www.w3.org/2000/svg" xmlns:xlink="http://www.w3.org/1999/xlink" x="0px" y="0px"
	 viewBox="0 0 113.4 85" style="enable-background:new 0 0 113.4 85;" xml:space="preserve">
<style type="text/css">
	.st0{fill:#5F3586;}
	.st1{fill:none;stroke:#5F3586;stroke-width:1.5;stroke-miterlimit:10;}
</style>
<g>
	<g>
		<g>
			<g>
				<path class="st0" d="M68.5,59.8c-2.8,0-5-2.2-5-5c0-0.2-0.1-0.3-0.3-0.3H50.4c-0.2,0-0.3,0.1-0.3,0.3c0,2.8-2.2,5-5,5
					s-5-2.2-5-5c0-0.2-0.1-0.3-0.3-0.3h-2.6c-0.6,0-1.1-0.5-1.1-1.1s0.5-1.1,1.1-1.1h3.4c0.1,0,0.2-0.1,0.2-0.1
					c1-1.5,2.5-2.5,4.2-2.5c1.7,0,3.5,1,4.2,2.5c0,0.1,0.1,0.1,0.2,0.1h9.8c0.2,0,0.3-0.1,0.3-0.3V30.1c0-0.2-0.1-0.3-0.3-0.3H39.8
					c-0.9,0-1.4,0.8-1.4,1.5c0,0.8,0.7,1.5,1.4,1.5h7.7c0.6,0,1.1,0.5,1.1,1.1S48.1,35,47.5,35h-5.1c-0.9,0-1.4,0.8-1.4,1.5
					s0.7,1.5,1.4,1.5h8.9c0.6,0,1.1,0.5,1.1,1.1s-0.5,1.1-1.1,1.1h-5.1c-0.9,0-1.4,0.8-1.4,1.5s0.7,1.5,1.4,1.5h6.5
					c0.6,0,1.1,0.5,1.1,1.1s-0.5,1.1-1.1,1.1h-6.5c-1.9,0-3.6-1.6-3.6-3.6c0-0.4,0.1-0.9,0.2-1.2c0-0.1,0-0.2,0-0.2
					c-0.1-0.1-0.1-0.1-0.2-0.1h-0.3c-1.9,0-3.6-1.6-3.6-3.6c0-0.5,0.1-1,0.3-1.3c0-0.1,0-0.2,0-0.2c0-0.1-0.1-0.1-0.2-0.1
					c-1.5-0.5-2.7-1.8-2.7-3.5c0-2,1.5-3.6,3.6-3.6h20.8c0.6,0,1.1,0.5,1.1,1.1v23.5c0,0.2,0.1,0.3,0.3,0.3h2c0.1,0,0.2-0.1,0.2-0.1
					l0.1-0.1c0.1-0.2,0.2-0.3,0.3-0.4c0.1-0.1,0.1-0.2,0.2-0.3c0.2-0.2,0.4-0.4,0.5-0.5s0.2-0.2,0.4-0.3c0.1-0.1,0.2-0.2,0.3-0.2
					c0.2-0.1,0.3-0.2,0.5-0.3h0.1c0.1,0,0.2-0.1,0.2-0.1c0.2-0.1,0.5-0.2,0.8-0.2c0.1,0,0.2,0,0.3-0.1c0.4-0.1,0.7-0.1,0.9-0.1
					c0.3,0,0.6,0,0.9,0.1c0.1,0,0.2,0,0.3,0.1c0.3,0.1,0.5,0.1,0.8,0.2c0.1,0,0.2,0.1,0.2,0.1H71c0.2,0.1,0.4,0.2,0.5,0.3
					s0.2,0.1,0.3,0.2c0.1,0.1,0.3,0.2,0.4,0.3c0.2,0.1,0.3,0.3,0.5,0.5c0.1,0.1,0.2,0.2,0.3,0.3s0.2,0.3,0.3,0.4v0.1
					c0,0.1,0.1,0.1,0.2,0.1h2c0.2,0,0.3-0.1,0.3-0.3V46c0-0.2-0.1-0.3-0.3-0.3h-6.4c-0.6,0-1.1-0.5-1.1-1.1v-6.4
					c0-0.2-0.1-0.3-0.3-0.3h-2.6c-0.6,0-1.1-0.5-1.1-1.1s0.5-1.1,1.1-1.1H73c0.4,0,0.8,0.2,1,0.6l3.8,7.8v0.1
					c0.1,0.2,0.1,0.3,0.1,0.5v9.1c0,0.6-0.5,1.1-1.1,1.1h-2.6c-0.2,0-0.3,0.1-0.3,0.3C73.5,57.6,71.3,59.8,68.5,59.8z M68.5,52
					c-0.3,0-0.6,0-0.9,0.1h-0.1c-0.9,0.3-1.4,1-1.7,1.7c-0.1,0.4-0.2,0.7-0.2,1.1c0,1.5,1.2,2.9,2.9,2.9c1.6,0,2.9-1.2,2.9-2.9
					c0-0.3-0.1-0.7-0.2-1c-0.3-0.9-1-1.4-1.7-1.7h-0.1C69.1,52.1,68.8,52,68.5,52z M45.1,52c-1.5,0-2.9,1.2-2.9,2.9
					c0,1.5,1.2,2.9,2.9,2.9c1.5,0,2.9-1.2,2.9-2.9S46.6,52,45.1,52z M69.8,37.8c-0.2,0-0.3,0.1-0.3,0.3v5.2c0,0.2,0.1,0.3,0.3,0.3
					h4.4c0.1,0,0.2,0,0.2-0.1c0.1-0.1,0.1-0.2,0-0.3L71.8,38c0-0.1-0.1-0.2-0.2-0.2H69.8z"/>
				<path class="st0" d="M68.5,59.6c-2.7,0-4.8-2.1-4.8-4.8c0-0.3-0.2-0.5-0.5-0.5H50.4c-0.3,0-0.5,0.2-0.5,0.5
					c0,2.7-2.1,4.8-4.8,4.8s-4.8-2.1-4.8-4.8c0-0.3-0.2-0.5-0.5-0.5h-2.6c-0.5,0-0.9-0.4-0.9-0.9s0.4-0.9,0.9-0.9h3.4
					c0.2,0,0.3-0.1,0.4-0.2c0.9-1.4,2.4-2.4,4.1-2.4c1.6,0,3.3,1,4.1,2.4c0.1,0.1,0.2,0.2,0.4,0.2h9.8c0.3,0,0.5-0.2,0.5-0.5V30.1
					c0-0.3-0.2-0.5-0.5-0.5H39.8c-1,0-1.6,0.8-1.6,1.7c0,0.9,0.8,1.7,1.6,1.7h7.7c0.5,0,0.9,0.4,0.9,0.9s-0.4,0.9-0.9,0.9h-5.1
					c-1,0-1.6,0.8-1.6,1.7s0.8,1.7,1.6,1.7h8.9c0.5,0,0.9,0.4,0.9,0.9S51.8,40,51.3,40h-5.1c-1,0-1.6,0.8-1.6,1.7s0.8,1.7,1.6,1.7
					h6.5c0.5,0,0.9,0.4,0.9,0.9s-0.4,0.9-0.9,0.9h-6.5c-1.8,0-3.5-1.5-3.5-3.5c0-0.4,0.1-0.8,0.2-1.2c0-0.1,0-0.3-0.1-0.4
					c-0.1-0.1-0.2-0.2-0.4-0.2h-0.2c-1.8,0-3.5-1.5-3.5-3.5c0-0.5,0.1-0.9,0.3-1.2c0-0.1,0-0.3,0-0.4c-0.1-0.1-0.2-0.2-0.3-0.2
					c-1.4-0.4-2.6-1.7-2.6-3.4c0-1.9,1.5-3.5,3.5-3.5h20.8c0.5,0,0.9,0.4,0.9,0.9v23.6c0,0.3,0.2,0.5,0.5,0.5h2
					c0.2,0,0.3-0.1,0.4-0.2c0,0,0-0.1,0.1-0.1c0.1-0.1,0.2-0.3,0.3-0.4c0.1-0.1,0.2-0.2,0.2-0.3l0,0c0.2-0.2,0.3-0.3,0.5-0.5
					c0.1-0.1,0.2-0.2,0.4-0.3c0.1-0.1,0.2-0.1,0.3-0.2c0.2-0.1,0.3-0.2,0.5-0.3h0.1c0.1,0,0.2-0.1,0.2-0.1c0.2-0.1,0.5-0.2,0.7-0.2
					c0.1,0,0.2,0,0.3-0.1c0.3-0.1,0.6-0.1,0.9-0.1s0.6,0,0.9,0.1c0.1,0,0.2,0,0.3,0.1c0.3,0.1,0.5,0.1,0.7,0.2
					c0.1,0,0.2,0.1,0.2,0.1h0.1c0.2,0.1,0.4,0.2,0.5,0.3s0.2,0.1,0.3,0.2c0.1,0.1,0.3,0.2,0.4,0.3c0.2,0.1,0.3,0.3,0.5,0.5l0,0
					c0.1,0.1,0.2,0.2,0.2,0.3c0.1,0.1,0.2,0.3,0.3,0.4c0,0,0,0,0,0.1c0.1,0.1,0.2,0.2,0.4,0.2h2c0.3,0,0.5-0.2,0.5-0.5v-6.4
					c0-0.3-0.2-0.5-0.5-0.5h-6.4c-0.5,0-0.9-0.4-0.9-0.9V38c0-0.3-0.2-0.5-0.5-0.5h-2.6c-0.5,0-0.9-0.4-0.9-0.9s0.4-0.9,0.9-0.9H73
					c0.4,0,0.7,0.2,0.8,0.5l3.8,7.8c0,0,0,0,0,0.1c0.1,0.1,0.1,0.3,0.1,0.4v9.1c0,0.5-0.4,0.9-0.9,0.9h-2.6c-0.3,0-0.5,0.2-0.5,0.5
					C73.3,57.5,71.2,59.6,68.5,59.6z M65.6,53.9L65.6,53.9c-0.2,0.4-0.2,0.8-0.2,1.1c0,1.6,1.3,3.1,3.1,3.1c1.6,0,3.1-1.3,3.1-3.1
					c0-0.3-0.1-0.7-0.2-1.1c0,0,0,0,0-0.1c-0.3-0.9-1.1-1.4-1.8-1.8c-0.1,0-0.1,0-0.2,0c-0.3-0.1-0.6-0.1-0.9-0.1s-0.6,0-0.9,0.1
					h-0.1C66.7,52.3,66,53,65.6,53.9z M45.1,52c-1.6,0-3.1,1.3-3.1,3.1c0,1.6,1.3,3.1,3.1,3.1c1.6,0,3.1-1.3,3.1-3.1
					S46.8,52,45.1,52z M69.8,37.7c-0.3,0-0.5,0.2-0.5,0.5v5.2c0,0.3,0.2,0.5,0.5,0.5h4.4c0.2,0,0.3-0.1,0.4-0.2
					c0.1-0.1,0.1-0.3,0-0.4L72,38c-0.1-0.2-0.2-0.3-0.4-0.3H69.8L69.8,37.7z"/>
			</g>
		</g>
	</g>
	<g>
		<g>
			<circle class="st0" cx="45.1" cy="54.8" r="1.1"/>
			<circle class="st0" cx="45.1" cy="54.8" r="0.9"/>
		</g>
	</g>
	<g>
		<g>
			<circle class="st0" cx="68.5" cy="54.8" r="1.1"/>
			<circle class="st0" cx="68.5" cy="54.8" r="0.9"/>
		</g>
	</g>
</g>
<circle class="st1" cx="56.9" cy="41.6" r="33.8"/>
<circle class="st1" cx="53.6" cy="44.9" r="33.8"/>
<circle class="st1" cx="58.9" cy="44.1" r="33.8"/>
</svg>
