<?xml version="1.0" encoding="utf-8"?>
<!-- Generator: Adobe Illustrator 21.1.0, SVG Export Plug-In . SVG Version: 6.00 Build 0)  -->
<svg version="1.1" id="Layer_1" xmlns="http://www.w3.org/2000/svg" xmlns:xlink="http://www.w3.org/1999/xlink" x="0px" y="0px"
	 viewBox="0 0 453.5 255.1" style="enable-background:new 0 0 453.5 255.1;" xml:space="preserve">
<style type="text/css">
	.st0{fill:#010101;}
</style>
<g id="Layer_1_1_">
	<g>
		<path class="st0" d="M221,171.1c-0.5,0-0.9-0.4-0.9-0.9V92.6c0-0.5,0.4-0.9,0.9-0.9c0.5,0,0.9,0.4,0.9,0.9v77.7
			C221.8,170.7,221.4,171.1,221,171.1L221,171.1z"/>
	</g>
	<g>
		<path class="st0" d="M232.7,149.8h3.7v8.8h10.2v-8.8h3.7V171h-3.7v-9h-10.2v9h-3.7V149.8z"/>
		<path class="st0" d="M254.2,163.1L254.2,163.1c0-4.7,3.2-8.4,7.9-8.4c5.1,0,7.7,4,7.7,8.6c0,0.4,0,0.8-0.1,1h-11.8
			c0.4,2.6,2.3,4.1,4.7,4.1c1.7,0,3-0.8,4.4-1.9l2.1,1.9c-1.5,1.9-3.6,3-6.6,3C257.7,171.3,254.2,167.9,254.2,163.1z M266,161.8
			c-0.3-2.4-1.6-4.3-4.1-4.3c-2.3,0-3.9,1.7-4.3,4.3H266z"/>
		<path class="st0" d="M272,166.3L272,166.3c0-3.5,2.7-5.2,6.6-5.2c1.7,0,3,0.3,4.4,0.8v-0.4c0-2.4-1.4-3.5-4-3.5
			c-1.7,0-3.1,0.4-4.6,1l-0.9-2.9c1.7-0.9,3.5-1.2,6.1-1.2c2.5,0,4.3,0.6,5.2,1.7c1.1,1.1,1.7,2.8,1.7,4.8v9.5H283v-2
			c-1,1.2-2.8,2.4-5.2,2.4C274.6,171.3,272,169.6,272,166.3z M283.1,165.2v-1c-0.9-0.4-2.3-0.6-3.6-0.6c-2.4,0-3.7,1-3.7,2.8l0,0
			c0,1.5,1.4,2.5,3.1,2.5C281.2,168.7,283.1,167.4,283.1,165.2z"/>
		<path class="st0" d="M290.7,148.8h3.6v22.2h-3.6V148.8z"/>
		<path class="st0" d="M299.7,166.6v-8.4h-2v-3.1h2v-4.5h3.6v4.5h4.4v3.1h-4.4v7.9c0,1.4,0.8,2,2,2c0.9,0,1.5-0.3,2.4-0.6v3
			c-0.9,0.5-1.9,0.9-3.2,0.9C301.6,171.3,299.7,170.1,299.7,166.6z"/>
		<path class="st0" d="M311.2,148.8h3.6v8.6c1-1.5,2.6-2.8,5-2.8c3.6,0,5.7,2.5,5.7,6.3v10.3h-3.6V162c0-2.5-1.2-4-3.4-4
			c-2.1,0-3.6,1.5-3.6,4v9h-3.6L311.2,148.8L311.2,148.8z"/>
	</g>
	<path class="st0" d="M151.5,151.8l-12.8-15h-5.4v23.5h5.2v-15l12.7,15h5.5v-23.5h-5.2V151.8z M202.2,136.8l-3.6,15l-3.6-15.1h-5
		l-3.7,14.8l-3.4-14.8h-5.6l6.1,23.5h5.4l3.7-14.8l3.6,14.8h5.4v-0.3l6.3-23.3C207.6,136.8,202.2,136.8,202.2,136.8z"/>
	<g>
		<g>
			<path class="st0" d="M132.6,167.5L132.6,167.5c0-2.1,1.5-3.7,3.7-3.7c1.2,0,2.1,0.4,2.8,0.9l-0.9,0.9c-0.6-0.5-1.1-0.9-2-0.9
				c-1.2,0-2.4,1.1-2.4,2.6l0,0c0,1.5,0.9,2.6,2.5,2.6c0.8,0,1.2-0.3,1.7-0.6v-1.4h-1.9v-1.1h3v3c-0.8,0.6-1.7,1.1-3,1.1
				C134.1,171.2,132.6,169.4,132.6,167.5"/>
			<path class="st0" d="M140.3,167.5L140.3,167.5c0-2.1,1.6-3.7,3.9-3.7s3.7,1.6,3.7,3.7l0,0c0,2-1.6,3.7-3.9,3.7
				C141.7,171.2,140.3,169.4,140.3,167.5 M146.6,167.5L146.6,167.5c0-1.4-1-2.6-2.5-2.6s-2.5,1.1-2.5,2.6l0,0c0,1.4,1,2.6,2.5,2.6
				S146.6,168.9,146.6,167.5"/>
			<polygon class="st0" points="147.8,163.8 149.1,163.8 151.4,169.4 153.5,163.8 155,163.8 151.9,171.1 150.8,171.1 			"/>
			<polygon class="st0" points="155.8,163.8 161.1,163.8 161.1,164.9 157,164.9 157,166.9 160.6,166.9 160.6,167.8 157,167.8 
				157,169.8 161.3,169.8 161.3,171.1 155.8,171.1 			"/>
			<path class="st0" d="M162.4,163.8h3.2c0.9,0,1.6,0.3,2.1,0.8c0.4,0.4,0.6,0.9,0.6,1.5l0,0c0,1.1-0.8,1.9-1.7,2.3l2,2.8h-1.5
				l-1.7-2.6h-1.6v2.6h-1.3V163.8L162.4,163.8z M165.7,167.4c0.9,0,1.5-0.5,1.5-1.1l0,0c0-0.9-0.6-1.1-1.5-1.1h-1.9v2.5L165.7,167.4
				L165.7,167.4z"/>
			<polygon class="st0" points="169.7,163.8 170.8,163.8 174.6,168.9 174.6,163.8 175.9,163.8 175.9,171.1 174.9,171.1 170.8,165.8 
				170.8,171.1 169.7,171.1 			"/>
			<polygon class="st0" points="177.2,163.8 178.6,163.8 180.8,167.2 182.9,163.8 184.3,163.8 184.3,171.1 183.1,171.1 183.1,165.7 
				180.8,169.2 180.7,169.2 178.5,165.7 178.5,171.1 177.2,171.1 			"/>
			<polygon class="st0" points="185.5,163.8 191,163.8 191,164.9 186.8,164.9 186.8,166.9 190.5,166.9 190.5,167.8 186.8,167.8 
				186.8,169.8 191,169.8 191,171.1 185.5,171.1 			"/>
			<polygon class="st0" points="192.3,163.8 193.4,163.8 197.2,168.9 197.2,163.8 198.5,163.8 198.5,171.1 197.5,171.1 193.5,165.8 
				193.5,171.1 192.3,171.1 			"/>
			<polygon class="st0" points="201.9,165 199.6,165 199.6,163.8 205.5,163.8 205.5,165 203.1,165 203.1,171.1 201.9,171.1 			"/>
		</g>
	</g>
	<path class="st0" d="M158.2,156.9l3.1-3.7c2.1,1.7,4.5,2.9,7.1,2.9c2.1,0,3.4-0.9,3.4-2.3v-0.1c0-1.2-0.9-2-4.8-3
		c-4.8-1.1-8-2.6-8-7.2v-0.1c0-4.4,3.5-7.2,8.3-7.2c3.5,0,6.4,1,8.8,3l-2.8,4c-2.1-1.5-4.3-2.4-6.3-2.4c-2,0.1-3,0.9-3,2.1v0.1
		c0,1.5,1,2.1,5.1,3.1c4.8,1.2,7.6,3,7.6,7.1v0.1c0,4.8-3.6,7.4-8.7,7.4C164.6,160.7,161,159.5,158.2,156.9z"/>
	<g>
		<g>
			<path d="M172.2,131.8c8.2-0.8,10.5,2,16.5,2c3.9,0,6.6-1.1,6.5-2.9c-0.2-1.7-1.4-1.4-6.9-0.7c-4.3,0.6-11.1-0.7-16.4,0.9
				C171.5,131.1,171.3,131.8,172.2,131.8z"/>
			<path d="M167.4,131.8c-8.2-0.8-10.4,2-16.5,2c-3.9,0-6.6-1.1-6.5-2.9c0.2-1.7,1.4-1.4,6.9-0.7c4.3,0.6,11.1-0.7,16.4,0.9
				C168,131.1,168.1,131.8,167.4,131.8z"/>
			<path d="M155.1,121.9c-1-3.4-1.5-7.3-1.5-10.8c0-6.5,1.2-11.9,1.2-11.9c0.2-0.9,0.8-1.5,1.5-1.7c-4-2.7-7.7-4.4-9.2-4.9
				c-0.5-0.2-0.7-0.4-0.7-0.4c-0.2-0.1-0.4-0.1-0.6-0.1c-0.6,0-0.9,0.4-1,1c0,0-0.1,0.9-0.2,2.3c-0.1,1.5-0.2,3.5-0.2,6
				c0,6,0.8,13.8,4.4,19.9c2.9,5.1,7.1,7.6,11.2,7.6c0.1,0,0.4,0,0.5,0C158.1,127.5,156.1,125,155.1,121.9z"/>
			<path d="M183.6,100.5c-0.1-0.7-0.2-0.9-0.2-0.9c-0.2-0.7-0.5-0.9-0.7-0.9c-0.1,0-0.4,0-0.6,0.2c0,0-0.1,0.1-0.5,0.4
				c-0.4,0.2-0.7,0.6-1,0.9c-0.9,0.9-2.2,2.1-3.5,3.4c-2.7,2.9-5.7,7.2-7.2,12l0,0c-0.9,2.8-1.2,5.3-1.2,7.5c0,1.5,0.2,2.9,0.8,4
				s1.2,1.8,2.3,2.3c0.5,0.2,1,0.4,1.7,0.4c3.2,0,8.2-2.7,9.9-8.1c1-3.3,1.4-7,1.4-10.5C184.6,106.3,184,102.2,183.6,100.5z"/>
			<g>
				<path d="M167.5,123.2c0-2.4,0.6-5,1.4-7.9c0.1-0.5,0.4-1,0.5-1.1c-2.9-7.7-9.9-13.5-11.6-14.9c-0.2-0.2-0.5-0.4-0.5-0.4
					c-0.2-0.2-0.5-0.2-0.6-0.2c-0.2,0-0.6,0.2-0.8,0.9c0,0-0.1,0.4-0.2,0.9c-0.1,0.6-0.2,1.4-0.5,2.6c-0.4,2.2-0.7,5-0.7,8.2
					c0,3.3,0.4,7.1,1.4,10.5c1.7,5.4,6.6,8.2,10,8.2c0.7,0,1.2-0.1,1.7-0.4c0.4-0.2,0.8-0.4,1-0.6c-0.4-0.4-0.6-0.8-0.8-1.1
					C167.9,126.3,167.5,124.8,167.5,123.2z"/>
			</g>
			<path d="M177.5,101.5c-2.3-7-5.6-12.8-6.7-14.7c-0.2-0.5-0.5-0.7-0.5-0.7c-0.4-0.5-0.6-0.6-0.8-0.6c-0.2,0-0.5,0.1-0.8,0.6
				c0,0-0.1,0.2-0.5,0.7c-0.2,0.5-0.7,1-1,1.8c-0.9,1.6-2.1,3.9-3.2,6.6c-0.9,1.8-1.6,4-2.4,6.2c2.7,2.7,6,6.5,8.1,11.2
				C171.9,107.9,175.1,104.1,177.5,101.5z"/>
			<path d="M194.9,95.4c-0.1-1.5-0.2-2.3-0.2-2.3c-0.1-0.8-0.6-1-1-1c-0.2,0-0.4,0-0.6,0.1c0,0-0.2,0.1-0.7,0.4
				c-0.5,0.2-1,0.6-2,0.9c-1.6,0.8-3.8,2-6.2,3.4c-0.4,0.2-0.8,0.5-1,0.7c0.8,0.1,1.4,0.9,1.5,1.7c0,0,1.1,5.4,1.1,11.9
				c0,3.4-0.4,7.2-1.4,10.8c-0.9,3.1-2.9,5.4-5,6.9c0.1,0,0.2,0,0.2,0c4.1,0,8.2-2.4,11.2-7.6c3.4-6.1,4.4-13.9,4.4-19.9
				C195,99,194.9,97,194.9,95.4z"/>
			<path d="M184.7,95.1c-0.8-4.1-1.7-6.7-1.7-6.7c-0.2-0.7-0.8-0.9-1.2-0.9c-0.2,0-0.4,0.1-0.6,0.2c0,0-0.9,0.6-2.4,1.6
				c-1,0.8-2.3,1.7-3.7,2.8c1,2.2,2.2,4.6,3.1,7.5C180.5,97.7,182.7,96.3,184.7,95.1z"/>
			<path d="M164.2,91.9c-1.4-1.1-2.7-2.2-3.7-2.8c-1.4-1-2.4-1.6-2.4-1.6c-0.2-0.1-0.4-0.2-0.6-0.2c-0.6-0.1-1,0.2-1.2,0.9
				c0,0-0.9,2.7-1.7,6.7c2.1,1.1,4.3,2.7,6.5,4.5C162.2,96.8,163.4,94.1,164.2,91.9z"/>
			<path d="M143.2,102.9c-2.1-0.2-4-0.4-5.3-0.4c-1.6,0-2.7,0-2.7,0c-0.6,0-1,0.4-1.4,0.9c-0.2,0.4-0.4,0.7-0.4,1c0,0,0,0,0,0.1
				c0,0.6,0.5,3.8,4.5,8.7c1.7-0.9,3.8-1.8,5.9-2.7C143.3,108,143.2,105.2,143.2,102.9z"/>
			<path d="M201.5,113.3c4-5,4.5-8.3,4.5-8.7c0-0.1,0-0.1,0-0.1c0-0.4-0.1-0.8-0.4-1c-0.4-0.5-0.9-0.8-1.4-0.9c0,0-0.9-0.1-2.7,0
				c-1.4,0-3.2,0.1-5.3,0.4c-0.1,2.4-0.2,5-0.7,7.8C197.8,111.5,199.8,112.4,201.5,113.3z"/>
			<path d="M208.6,118.9c0,0-0.2-0.1-0.6-0.5c-0.4-0.2-0.9-0.7-1.6-1c-1.4-0.9-3.3-2.1-5.7-3.2c-1.6-0.9-3.4-1.6-5.3-2.4
				c-0.7,3.4-1.7,6.9-3.4,10c-1.8,3.3-4.3,5.6-6.7,6.9c18.9-0.9,23.8-7.1,24-7.3l0,0c0.2-0.4,0.4-0.7,0.4-1
				C209.4,119.9,209.2,119.3,208.6,118.9z"/>
			<path d="M147.6,121.9c-1.7-2.9-2.8-6.6-3.4-10c-6.1,2.3-11,5.5-12.6,6.7c-0.4,0.2-0.6,0.5-0.6,0.5c-0.5,0.4-0.8,0.9-0.8,1.4
				c0,0.4,0.1,0.7,0.4,0.9l0,0l0,0l0,0c0,0,0.1,0.1,0.2,0.2c0.2,0.2,0.5,0.5,0.9,0.9c0.9,0.7,2.2,1.6,4.3,2.7
				c3.7,1.6,9.5,3.3,18.7,3.7C151.8,127.6,149.4,125.3,147.6,121.9z"/>
		</g>
	</g>
</g>
<g id="Layer_2">
</g>
</svg>
