<?xml version="1.0" encoding="utf-8"?>
<!-- Generator: Adobe Illustrator 21.1.0, SVG Export Plug-In . SVG Version: 6.00 Build 0)  -->
<svg version="1.1" id="Layer_1" xmlns="http://www.w3.org/2000/svg" xmlns:xlink="http://www.w3.org/1999/xlink" x="0px" y="0px"
	 viewBox="0 0 453.5 255.1" style="enable-background:new 0 0 453.5 255.1;" xml:space="preserve">
<style type="text/css">
	.st0{fill:none;stroke:#000000;stroke-width:1.5044;stroke-linecap:round;stroke-linejoin:round;}
</style>
<line class="st0" x1="162.6" y1="95.4" x2="162.6" y2="171.2"/>
<g>
	<g>
		<path d="M110.6,135.3c8.8-0.8,11.2,2.1,17.6,2.1c4.2,0,7-1.3,6.9-3.1c-0.2-1.8-1.5-1.5-7.4-0.7c-4.5,0.6-11.9-0.7-17.5,0.9
			C109.8,134.5,109.6,135.3,110.6,135.3z"/>
		<path d="M105.4,135.3c-8.8-0.8-11.2,2.1-17.6,2.1c-4.2,0-7-1.3-6.9-3.1c0.2-1.8,1.5-1.5,7.4-0.7c4.5,0.6,11.9-0.7,17.5,0.9
			C106.2,134.5,106.3,135.3,105.4,135.3z"/>
		<path d="M92.3,124.7c-1.2-3.7-1.6-7.8-1.6-11.5c0-6.9,1.4-12.7,1.4-12.7c0.2-0.9,0.8-1.6,1.6-1.8c-4.3-2.8-8.2-4.6-9.8-5.3
			c-0.5-0.2-0.7-0.3-0.7-0.3C83,93,82.9,93,82.6,93c-0.6,0-1,0.3-1.2,1.2c0,0-0.1,0.9-0.2,2.4c-0.1,1.6-0.2,3.8-0.2,6.3
			c0,6.3,0.8,14.8,4.6,21.2c3.2,5.5,7.6,8.1,12,8.1c0.1,0,0.3,0,0.5,0C95.5,130.6,93.4,128.1,92.3,124.7z"/>
		<path d="M122.8,101.8c-0.1-0.7-0.2-0.9-0.2-0.9c-0.2-0.7-0.5-0.9-0.7-0.9c-0.1,0-0.3,0-0.6,0.2c0,0-0.1,0.1-0.5,0.3
			s-0.7,0.6-1.2,1c-0.9,0.9-2.3,2.2-3.8,3.7c-2.9,3.2-6.1,7.7-7.7,12.8l0,0c-0.9,3-1.4,5.6-1.4,8c0,1.6,0.2,3.1,0.8,4.3
			s1.4,2,2.4,2.4c0.5,0.2,1.2,0.3,1.8,0.3c3.5,0,8.8-2.9,10.5-8.6c1.2-3.6,1.5-7.5,1.5-11.2C123.8,108.1,123.2,103.6,122.8,101.8z"
			/>
		<g>
			<path d="M105.5,126.1c0-2.5,0.6-5.4,1.5-8.4c0.1-0.5,0.3-0.9,0.5-1.3c-3.2-8.2-10.5-14.4-12.3-15.9c-0.2-0.2-0.5-0.3-0.5-0.3
				c-0.2-0.2-0.5-0.2-0.6-0.2c-0.2,0-0.6,0.2-0.8,0.9c0,0-0.1,0.3-0.2,0.9c-0.1,0.6-0.2,1.5-0.5,2.7c-0.3,2.3-0.7,5.4-0.7,8.8
				c0,3.6,0.3,7.6,1.5,11.2c1.8,5.8,7.1,8.6,10.7,8.6c0.7,0,1.4-0.1,1.8-0.3c0.3-0.2,0.8-0.3,1-0.6c-0.3-0.3-0.6-0.8-0.8-1.3
				C105.9,129.4,105.5,127.8,105.5,126.1z"/>
		</g>
		<path d="M116.4,102.9c-2.4-7.5-6-13.7-7.3-15.7c-0.2-0.5-0.5-0.7-0.5-0.7c-0.3-0.5-0.6-0.6-0.8-0.6s-0.5,0.1-0.8,0.6
			c0,0-0.1,0.2-0.5,0.7c-0.2,0.5-0.7,1.2-1.2,2c-0.9,1.7-2.2,4.2-3.5,7c-0.9,2-1.7,4.3-2.5,6.6c2.8,2.8,6.3,6.9,8.6,12
			C110.4,109.7,113.7,105.7,116.4,102.9z"/>
		<path d="M134.8,96.5c-0.1-1.6-0.2-2.4-0.2-2.4c-0.1-0.8-0.6-1.2-1.2-1.2c-0.2,0-0.3,0-0.6,0.1c0,0-0.2,0.1-0.7,0.3
			c-0.5,0.2-1.2,0.6-2.1,0.9c-1.7,0.8-4,2.1-6.6,3.7c-0.3,0.2-0.8,0.5-1.2,0.7c0.8,0.1,1.5,0.9,1.6,1.8c0,0,1.3,5.8,1.3,12.7
			c0,3.7-0.3,7.7-1.5,11.5c-1,3.3-3.1,5.8-5.4,7.4c0.1,0,0.2,0,0.2,0c4.4,0,8.8-2.5,12-8.1c3.7-6.5,4.6-14.9,4.6-21.2
			C135,100.3,134.9,98.1,134.8,96.5z"/>
		<path d="M124,96c-0.8-4.4-1.8-7.3-1.8-7.3c-0.2-0.7-0.8-1-1.4-0.9c-0.2,0-0.3,0.1-0.6,0.2c0,0-0.9,0.6-2.5,1.7
			c-1,0.8-2.4,1.8-3.9,3.1c1.2,2.3,2.3,5,3.3,8C119.4,98.9,121.8,97.4,124,96z"/>
		<path d="M102.2,92.8c-1.5-1.3-2.9-2.3-3.9-3.1c-1.5-1.2-2.5-1.7-2.5-1.7c-0.2-0.1-0.3-0.2-0.6-0.2c-0.6-0.1-1.2,0.2-1.4,0.9
			c0,0-1,2.9-1.8,7.3c2.2,1.3,4.5,2.9,6.9,4.7C99.9,97.9,101.1,95.1,102.2,92.8z"/>
		<path d="M79.6,104.4c-2.2-0.2-4.3-0.3-5.6-0.3c-1.7,0-2.8,0-2.8,0c-0.6,0-1.2,0.3-1.5,0.9c-0.2,0.3-0.3,0.7-0.3,1c0,0,0,0,0,0.1
			c0,0.6,0.5,4,4.7,9.3c1.8-0.9,4-2,6.2-2.8C79.8,109.8,79.6,107,79.6,104.4z"/>
		<path d="M141.8,115.5c4.3-5.4,4.7-8.9,4.7-9.3c0-0.1,0-0.1,0-0.1c0-0.3-0.1-0.8-0.3-1c-0.3-0.5-0.9-0.8-1.5-0.9c0,0-1-0.1-2.8,0
			c-1.5,0-3.5,0.1-5.6,0.3c-0.1,2.5-0.2,5.4-0.7,8.3C137.9,113.5,140,114.6,141.8,115.5z"/>
		<path d="M149.4,121.6c0,0-0.2-0.1-0.6-0.5c-0.3-0.2-0.9-0.7-1.7-1.2c-1.5-0.9-3.6-2.2-6.1-3.5c-1.7-0.9-3.7-1.7-5.6-2.5
			c-0.7,3.7-1.8,7.4-3.7,10.7c-2,3.6-4.5,6-7.3,7.4c20.3-0.9,25.4-7.6,25.6-7.8l0,0c0.2-0.3,0.3-0.7,0.3-1
			C150.2,122.5,150,121.9,149.4,121.6z"/>
		<path d="M84.3,124.7c-1.8-3.2-3-7-3.7-10.7c-6.5,2.4-11.8,5.9-13.5,7.1c-0.3,0.2-0.6,0.5-0.6,0.5c-0.5,0.3-0.8,0.9-0.8,1.5
			c0,0.3,0.1,0.7,0.3,1l0,0l0,0l0,0c0,0,0.1,0.1,0.2,0.2c0.2,0.2,0.5,0.5,0.9,0.9c0.9,0.7,2.3,1.7,4.5,2.8
			c3.9,1.7,10.1,3.6,19.9,3.9C88.8,130.7,86.3,128.3,84.3,124.7z"/>
	</g>
</g>
<g>
	<g>
		<g>
			<path d="M74.4,140.6h4.3l9.9,13v-13h4.6v21.1h-3.9L79,148.2v13.5h-4.6V140.6L74.4,140.6z"/>
			<path d="M94.8,158.7l2.8-3.3c2,1.6,3.9,2.5,6.3,2.5c2,0,3-0.8,3-2v-0.1c0-1.2-0.7-1.7-4.3-2.7c-4.3-1-7-2.3-7-6.5l0,0
				c0-3.8,3.1-6.3,7.4-6.3c3.1,0,5.8,0.9,7.8,2.7l-2.4,3.5c-1.8-1.3-3.7-2.1-5.5-2.1c-1.7,0-2.8,0.8-2.8,1.8v0.1
				c0,1.4,0.9,1.8,4.6,2.8c4.3,1.2,6.7,2.7,6.7,6.3v0.1c0,4.2-3.2,6.6-7.7,6.6C100.6,162.1,97.3,160.9,94.8,158.7z"/>
			<path d="M111.4,140.6h5l4.4,14.3l4.7-14.4h4l4.7,14.4l4.4-14.3h4.8l-7.3,21.3h-4l-4.7-13.8l-4.7,13.8h-4L111.4,140.6z"/>
		</g>
	</g>
</g>
<g>
	<path d="M74,167.7L74,167.7c0-2,1.5-3.5,3.5-3.5c1.2,0,1.8,0.3,2.5,0.9l-0.7,0.9c-0.6-0.5-1-0.7-1.8-0.7c-1.3,0-2.2,1-2.2,2.4l0,0
		c0,1.4,0.9,2.4,2.3,2.4c0.7,0,1.3-0.2,1.6-0.5v-1.3h-1.7v-1h2.9v2.9c-0.7,0.6-1.6,1-2.8,1C75.4,171.2,74,169.7,74,167.7z"/>
	<path d="M81.2,167.7L81.2,167.7c0-2,1.5-3.5,3.6-3.5s3.5,1.6,3.5,3.5l0,0c0,1.8-1.5,3.5-3.6,3.5C82.7,171.2,81.2,169.6,81.2,167.7z
		 M87,167.7L87,167.7c0-1.4-0.9-2.4-2.3-2.4c-1.4,0-2.3,1-2.3,2.4l0,0c0,1.3,0.9,2.4,2.3,2.4C86,170,87,169,87,167.7z"/>
	<path d="M88,164.3h1.3l2.1,5.2l2.1-5.2h1.3l-2.8,6.8h-1L88,164.3z"/>
	<path d="M95,164.3h5v1h-3.8v1.7h3.3v1h-3.3v1.8h3.8v1h-5.1v-6.7H95V164.3z"/>
	<path d="M101.1,164.3h3c0.8,0,1.5,0.2,2,0.7c0.3,0.3,0.6,0.9,0.6,1.5l0,0c0,1.2-0.7,1.7-1.6,2.1l1.8,2.5h-1.4l-1.6-2.3h-1.5v2.3
		h-1.2v-6.8L101.1,164.3L101.1,164.3z M104,167.6c0.8,0,1.4-0.5,1.4-1.2l0,0c0-0.7-0.5-1.2-1.4-1.2h-1.7v2.3h1.7V167.6z"/>
	<path d="M107.9,164.3h1.2l3.6,4.6v-4.6h1.2v6.7h-1l-3.7-4.8v4.8H108L107.9,164.3L107.9,164.3z"/>
	<path d="M115.4,164.3h1.3l2.1,3.2l2.1-3.2h1.3v6.7H121v-4.8l-2.1,3.2l0,0l-2.1-3.1v4.8h-1.2v-6.8L115.4,164.3L115.4,164.3z"/>
	<path d="M123.7,164.3h5v1h-3.8v1.7h3.3v1h-3.3v1.8h3.8v1h-5.1v-6.7h0.1V164.3z"/>
	<path d="M130.1,164.3h1.2l3.6,4.6v-4.6h1.2v6.7h-1l-3.7-4.8v4.8h-1.3V164.3z"/>
	<path d="M139.1,165.4h-2.2v-1.2h5.4v1.2h-2.1v5.6h-1.1V165.4z"/>
</g>
<g>
	<g>
		<path d="M176.5,120.1h3.5v8.1h9.2v-8.1h3.5v19.4h-3.5v-8.2H180v8.2h-3.5L176.5,120.1L176.5,120.1z"/>
		<path d="M194.9,132.2L194.9,132.2c0-4.3,3.3-7.7,7.8-7.7s7.7,3.5,7.7,7.6l0,0c0,4.2-3.3,7.6-7.8,7.6
			C198.1,139.8,194.9,136.4,194.9,132.2z M207.1,132.2L207.1,132.2c0-2.7-1.8-4.7-4.5-4.7s-4.4,2.1-4.4,4.6l0,0
			c0,2.5,1.8,4.7,4.5,4.7C205.4,136.8,207.1,134.7,207.1,132.2z"/>
		<path d="M212.2,134.2v-9.3h3.3v8.3c0,2.3,1.2,3.6,3.1,3.6c2,0,3.3-1.4,3.3-3.6v-8.3h3.3v14.6h-3.3v-2.3c-0.9,1.4-2.3,2.5-4.6,2.5
			C214,139.8,212.2,137.5,212.2,134.2z"/>
		<path d="M226.8,137.5l1.5-2.3c1.6,1.2,3.3,1.8,4.8,1.8c1.4,0,2.3-0.6,2.3-1.6l0,0c0-1.2-1.5-1.5-3.2-2.1c-2.2-0.6-4.6-1.5-4.6-4.3
			l0,0c0-2.8,2.3-4.5,5.2-4.5c1.8,0,3.8,0.7,5.4,1.6l-1.4,2.4c-1.4-0.8-2.9-1.4-4.2-1.4s-2.1,0.6-2.1,1.4l0,0c0,1,1.6,1.5,3.3,2.1
			c2.1,0.7,4.5,1.6,4.5,4.3l0,0c0,3.1-2.4,4.6-5.4,4.6C230.9,139.7,228.6,139,226.8,137.5z"/>
		<path d="M240.4,119.4h3.6v3.2h-3.6V119.4z M240.5,124.8h3.3v14.6h-3.3V124.8z"/>
		<path d="M246.7,124.8h3.3v2.2c0.9-1.4,2.3-2.5,4.6-2.5c3.3,0,5.2,2.2,5.2,5.5v9.3h-3.3V131c0-2.3-1.2-3.6-3.1-3.6
			s-3.3,1.4-3.3,3.6v8.3h-3.3v-14.5H246.7z"/>
		<path d="M262.4,142.2l1.3-2.5c1.6,0.9,3.2,1.5,5.2,1.5c3,0,4.6-1.5,4.6-4.5v-1.1c-1.3,1.6-2.8,2.7-5.2,2.7c-3.5,0-6.7-2.5-6.7-6.8
			l0,0c0-4.3,3.2-6.9,6.7-6.9c2.4,0,4,1.2,5.1,2.5v-2.2h3.3v11.6c0,2.4-0.7,4.3-1.8,5.5c-1.4,1.4-3.3,2-6,2
			C266.4,144,264.3,143.4,262.4,142.2z M273.5,131.4L273.5,131.4c0-2.4-2-4-4.3-4s-4.2,1.6-4.2,4l0,0c0,2.4,1.8,4,4.2,4
			S273.5,133.8,273.5,131.4z"/>
		<path d="M293.5,120h3.1l8.5,19.5h-3.6l-2-4.7h-9.1l-2,4.7h-3.3L293.5,120z M298.4,131.7l-3.3-7.7l-3.3,7.7H298.4z"/>
		<path d="M306.7,124.8h3.3v2.4c1-1.5,2.7-2.8,5-2.8c3.5,0,6.8,2.8,6.8,7.6l0,0c0,4.8-3.3,7.6-6.8,7.6c-2.4,0-3.9-1.3-5-2.5v6.7
			h-3.3V124.8z M318.3,132.2L318.3,132.2c0-2.9-2-4.7-4.2-4.7c-2.3,0-4.3,1.8-4.3,4.7l0,0c0,2.8,2,4.7,4.3,4.7
			C316.5,136.8,318.3,135.1,318.3,132.2z"/>
		<path d="M323.7,124.8h3.3v2.4c1-1.5,2.7-2.8,5-2.8c3.5,0,6.8,2.8,6.8,7.6l0,0c0,4.8-3.3,7.6-6.8,7.6c-2.4,0-3.9-1.3-5-2.5v6.7
			h-3.3V124.8z M335.4,132.2L335.4,132.2c0-2.9-2-4.7-4.2-4.7c-2.3,0-4.3,1.8-4.3,4.7l0,0c0,2.8,2,4.7,4.3,4.7
			C333.5,136.8,335.4,135.1,335.4,132.2z"/>
		<path d="M340,132.2L340,132.2c0-4.3,3-7.6,7.1-7.6c4.6,0,7,3.7,7,7.8c0,0.3,0,0.6,0,0.9h-10.7c0.3,2.4,2.1,3.7,4.2,3.7
			c1.6,0,2.8-0.6,3.9-1.7l2,1.7c-1.4,1.6-3.3,2.8-6,2.8C343.2,139.8,340,136.7,340,132.2z M350.8,131.2c-0.2-2.2-1.5-3.8-3.7-3.8
			c-2.1,0-3.5,1.6-3.8,3.8H350.8z"/>
		<path d="M355,135.3L355,135.3c0-3.2,2.4-4.7,6-4.7c1.6,0,2.8,0.2,3.9,0.6v-0.3c0-2.1-1.3-3.2-3.6-3.2c-1.6,0-2.9,0.3-4.2,0.9
			l-0.9-2.7c1.6-0.7,3.2-1.2,5.5-1.2c2.2,0,3.8,0.6,4.8,1.6s1.6,2.7,1.6,4.5v8.6h-3.2v-1.8c-1,1.2-2.5,2.1-4.7,2.1
			C357.5,139.8,355,138.2,355,135.3z M365,134.2v-0.9c-0.8-0.3-2-0.6-3.3-0.6c-2.2,0-3.5,0.9-3.5,2.4l0,0c0,1.4,1.3,2.2,2.9,2.2
			C363.4,137.4,365,136,365,134.2z"/>
		<path d="M370.9,119.3h3.3v20.2h-3.3V119.3z"/>
		<path d="M376,137.5l1.5-2.3c1.6,1.2,3.3,1.8,4.8,1.8c1.4,0,2.3-0.6,2.3-1.6l0,0c0-1.2-1.5-1.5-3.2-2.1c-2.2-0.6-4.6-1.5-4.6-4.3
			l0,0c0-2.8,2.3-4.5,5.2-4.5c1.8,0,3.8,0.7,5.4,1.6l-1.4,2.4c-1.4-0.8-2.9-1.4-4.2-1.4c-1.3,0-2.1,0.6-2.1,1.4l0,0
			c0,1,1.6,1.5,3.3,2.1c2.1,0.7,4.5,1.6,4.5,4.3l0,0c0,3.1-2.4,4.6-5.4,4.6C380.1,139.7,377.8,139,376,137.5z"/>
		<path d="M175.6,161.4L175.6,161.4c0-5.5,4.2-10,10-10c3.6,0,5.8,1.3,7.6,3l-2.2,2.5c-1.5-1.4-3.2-2.4-5.4-2.4
			c-3.7,0-6.3,3-6.3,6.8l0,0c0,3.8,2.7,6.9,6.3,6.9c2.4,0,3.9-0.9,5.5-2.5l2.2,2.2c-2.1,2.1-4.3,3.5-7.8,3.5
			C179.9,171.3,175.6,166.9,175.6,161.4z"/>
		<path d="M193.9,163.8L193.9,163.8c0-4.3,3.3-7.7,7.8-7.7s7.7,3.5,7.7,7.6l0,0c0,4.2-3.3,7.6-7.8,7.6
			C197.3,171.3,193.9,167.9,193.9,163.8z M206.2,163.8L206.2,163.8c0-2.7-1.8-4.7-4.5-4.7s-4.4,2.1-4.4,4.6l0,0
			c0,2.5,1.8,4.7,4.5,4.7C204.4,168.4,206.2,166.3,206.2,163.8z"/>
		<path d="M211.5,156.4h3.3v2.2c0.9-1.3,2.2-2.5,4.5-2.5c2.1,0,3.6,1,4.4,2.5c1.2-1.5,2.8-2.5,5-2.5c3.2,0,5.1,2.1,5.1,5.5v9.3h-3.3
			v-8.3c0-2.3-1-3.6-3-3.6c-1.8,0-3.1,1.3-3.1,3.6v8.3h-3.3v-8.3c0-2.3-1.2-3.6-3-3.6s-3.1,1.4-3.1,3.6v8.3h-3.3L211.5,156.4
			L211.5,156.4z"/>
		<path d="M236.2,156.4h3.3v2.2c0.9-1.3,2.2-2.5,4.5-2.5c2.1,0,3.6,1,4.4,2.5c1.2-1.5,2.8-2.5,5-2.5c3.2,0,5.1,2.1,5.1,5.5v9.3h-3.3
			v-8.3c0-2.3-1-3.6-3-3.6c-1.8,0-3.1,1.3-3.1,3.6v8.3h-3.3v-8.3c0-2.3-1.2-3.6-3-3.6s-3.1,1.4-3.1,3.6v8.3h-3.3L236.2,156.4
			L236.2,156.4z"/>
		<path d="M261,151h3.6v3.2H261V151z M261.1,156.4h3.3V171h-3.3V156.4z"/>
		<path d="M268.1,167v-7.7h-1.8v-2.9h1.8v-4h3.3v4h3.9v2.9h-3.9v7.1c0,1.3,0.7,1.8,1.8,1.8c0.7,0,1.4-0.1,2.1-0.5v2.8
			c-0.8,0.5-1.7,0.7-3,0.7C269.9,171.3,268.1,170.1,268.1,167z"/>
		<path d="M278,167v-7.7h-1.9v-2.9h1.8v-4h3.3v4h3.9v2.9h-3.9v7.1c0,1.3,0.7,1.8,1.8,1.8c0.7,0,1.4-0.1,2.1-0.5v2.8
			c-0.8,0.5-1.7,0.7-3,0.7C279.7,171.3,278,170.1,278,167z"/>
		<path d="M285.9,163.8L285.9,163.8c0-4.3,3-7.6,7.1-7.6c4.6,0,7,3.7,7,7.8c0,0.3,0,0.6,0,0.9h-10.7c0.3,2.4,2.1,3.7,4.2,3.7
			c1.6,0,2.8-0.6,3.9-1.7l2,1.7c-1.4,1.6-3.3,2.8-6,2.8C289.2,171.3,285.9,168.3,285.9,163.8z M296.8,162.6
			c-0.2-2.2-1.5-3.8-3.7-3.8c-2.1,0-3.5,1.6-3.8,3.8H296.8z"/>
		<path d="M301.1,163.8L301.1,163.8c0-4.3,3-7.6,7.1-7.6c4.6,0,7,3.7,7,7.8c0,0.3,0,0.6,0,0.9h-10.7c0.3,2.4,2.1,3.7,4.2,3.7
			c1.6,0,2.8-0.6,3.9-1.7l2,1.7c-1.4,1.6-3.3,2.8-6,2.8C304.5,171.3,301.1,168.3,301.1,163.8z M312,162.6c-0.2-2.2-1.5-3.8-3.7-3.8
			c-2.1,0-3.5,1.6-3.8,3.8H312z"/>
	</g>
</g>
</svg>
