<?xml version="1.0" encoding="utf-8"?>
<!-- Generator: Adobe Illustrator 21.1.0, SVG Export Plug-In . SVG Version: 6.00 Build 0)  -->
<svg version="1.1" id="Layer_1" xmlns="http://www.w3.org/2000/svg" xmlns:xlink="http://www.w3.org/1999/xlink" x="0px" y="0px"
	 viewBox="0 0 453.5 255.1" style="enable-background:new 0 0 453.5 255.1;" xml:space="preserve">
<g>
	<g>
		<path d="M111.8,125.6c0,0.1,0.1,0.2,0.1,0.2c-4.8-11.3-12.1,3.8-21.8,2.6c0,0,0,0,0,0c0,0-0.1,0-0.1,0c-0.1,0.5-2.3,13.4-2.3,13.4
			h21.4c0,0,2.7-15.7,2.8-16C111.8,125.8,111.8,125.7,111.8,125.6z"/>
	</g>
</g>
<g>
	<g>
		<path d="M95.5,110.7c0,0-2.6,14.9-2.7,15.4c0,0,0.1,0,0.1,0c11.3-1.3,17-16.1,21.6-2.9c0,0.1,0.1,0.2,0.1,0.3
			c0.2-1,2.2-12.8,2.2-12.8H95.5z"/>
	</g>
</g>
<path d="M138,110.5c6.1,0,8.5,3.6,7.6,8.9c-1.2,6.8-6.2,10.1-12.2,10.1h-2.5l-2.2,12.5h-7.3l5.5-31.4H138z M133.1,116.6l-1.2,6.7
	h1.6c2.3,0,4.2-1.2,4.6-3.6c0.3-1.9-0.7-3.1-2.8-3.1H133.1z"/>
<path d="M162.7,131.1c-1.2,6.9-6.1,11.3-12.1,11.3c-6.2,0-9.1-4.7-7.9-11.1c1.2-6.6,5.8-11.3,11.9-11.3
	C160.4,120,163.9,124,162.7,131.1z M150,131.2c-0.4,2.1-0.7,5.7,1.7,5.7c2.4,0,3.4-3.9,3.7-5.7c0.5-2.8,0.4-5.7-1.7-5.7
	C151.1,125.5,150.2,129.6,150,131.2z"/>
<path d="M177.8,127.2c-0.4-0.2-1.1-0.6-1.9-0.6c-1.9,0-3.5,1.7-3.9,4l-2,11.3h-7.2l3.8-21.5h6.2l0.2,2.8h0.1
	c0.6-1.1,1.9-3.3,4.3-3.3c0.8,0,1.3,0.2,1.7,0.5L177.8,127.2z"/>
<path d="M191.2,114l-1.1,6.5h3.6l-0.9,5.2h-3.2l-1.5,8.8c-0.2,1.2,0.2,2,1.3,2c0.6,0,1.2-0.3,1.7-0.6l-1,5.8
	c-0.9,0.3-2.2,0.7-4.1,0.7c-4.2,0-6.1-1.8-5.3-6.5l1.8-10.2h-2.6l0.9-5.2h3l1.7-6.5H191.2z"/>
<path d="M209.6,127.8c-0.7-0.7-2.2-2.2-4.4-2.2c-1.2,0-2.2,0.5-2.4,1.4c-0.2,0.9,0.8,1.3,2,1.7c1.7,0.6,5.7,2.1,4.9,6.4
	c-0.7,4-4.8,7.4-10.2,7.4c-3.3,0-5.5-1.2-6.7-1.9l1.1-6.5c1.4,1.3,3.2,2.8,5.5,2.8c1.4,0,2.5-0.8,2.7-1.8c0.2-1-0.1-1.1-3-2.4
	c-1.2-0.6-4.5-2.1-3.8-6c0.7-4.1,5-6.6,9.6-6.6c2.1,0,4,0.5,5.8,1.4L209.6,127.8z"/>
<path d="M238.7,110.5l2.8,31.4h-8l0-6.2h-6l-2.2,6.2h-7.5l13.7-31.4H238.7z M233.5,119.1L233.5,119.1l-4,11h4L233.5,119.1z"/>
<path d="M253,120.5l-2.3,13.3c-0.2,1.1-0.2,2.4,0.9,2.4c1.1,0,2.1-1.1,2.4-2.4l2.3-13.3h7.2l-3.8,21.5h-6.2l-0.3-2.1
	c-0.9,0.8-2.7,2.6-5.3,2.6c-3.7,0-5.3-3.4-4.6-7.3l2.6-14.7H253z"/>
<path d="M278.9,127.8c-0.7-0.7-2.2-2.2-4.4-2.2c-1.2,0-2.2,0.5-2.4,1.4c-0.2,0.9,0.8,1.3,2,1.7c1.7,0.6,5.7,2.1,4.9,6.4
	c-0.7,4-4.8,7.4-10.2,7.4c-3.3,0-5.5-1.2-6.7-1.9l1.1-6.5c1.4,1.3,3.2,2.8,5.5,2.8c1.4,0,2.5-0.8,2.7-1.8c0.2-1-0.1-1.1-3-2.4
	c-1.2-0.6-4.5-2.1-3.8-6c0.7-4.1,5-6.6,9.6-6.6c2.1,0,4,0.5,5.8,1.4L278.9,127.8z"/>
<path d="M292.8,114l-1.1,6.5h3.6l-0.9,5.2H291l-1.5,8.8c-0.2,1.2,0.2,2,1.3,2c0.6,0,1.2-0.3,1.7-0.6l-1,5.8
	c-0.9,0.3-2.2,0.7-4.1,0.7c-4.2,0-6.1-1.8-5.3-6.5l1.8-10.2h-2.6l0.9-5.2h3l1.7-6.5H292.8z"/>
<path d="M308.5,127.2c-0.4-0.2-1.1-0.6-1.9-0.6c-1.9,0-3.5,1.7-3.9,4l-2,11.3h-7.2l3.8-21.5h6.2l0.2,2.8h0.1
	c0.6-1.1,1.9-3.3,4.3-3.3c0.8,0,1.3,0.2,1.7,0.5L308.5,127.2z"/>
<path d="M325.1,135.7c-0.1,0.6-0.5,3.1,0.2,6.2h-7.2c-0.2-0.8-0.3-1.2-0.3-2c-1.2,1.1-2.7,2.5-5.1,2.5c-3.3,0-5.9-3-5.3-6.9
	c1.1-6.2,8.9-7.3,12.5-7.8c-0.1-2.1-2.5-2.4-3.5-2.4c-2.4,0-4.1,1.1-5.5,2l1-5.7c1.4-0.6,4.1-1.8,7.3-1.8c5.3,0,8,3.2,7.1,8.5
	L325.1,135.7z M319.4,131.3c-1.3,0.1-4.6,0.5-5.1,3.4c-0.3,1.5,0.6,2.6,1.8,2.6c1.5,0,2.5-1.5,2.8-3.2L319.4,131.3z"/>
<path d="M340.2,110.5l-5.5,31.4h-7.2l5.5-31.4H340.2z"/>
<path d="M349.1,120.5l-3.8,21.5h-7.1l3.8-21.5H349.1z M350.5,113.8c-0.4,2.1-2.4,3.8-4.5,3.8c-2.2,0-3.5-1.8-3.2-3.8
	c0.4-2.2,2.5-3.8,4.5-3.8C349.3,110,350.9,111.6,350.5,113.8z"/>
<path d="M365.6,135.7c-0.1,0.6-0.5,3.1,0.2,6.2h-7.2c-0.2-0.8-0.3-1.2-0.3-2c-1.2,1.1-2.7,2.5-5.1,2.5c-3.3,0-5.9-3-5.3-6.9
	c1.1-6.2,8.9-7.3,12.5-7.8c-0.1-2.1-2.5-2.4-3.5-2.4c-2.4,0-4.1,1.1-5.5,2l1-5.7c1.4-0.6,4.1-1.8,7.3-1.8c5.3,0,8,3.2,7.1,8.5
	L365.6,135.7z M359.9,131.3c-1.3,0.1-4.6,0.5-5.1,3.4c-0.3,1.5,0.6,2.6,1.8,2.6c1.5,0,2.5-1.5,2.8-3.2L359.9,131.3z"/>
</svg>
